<?xml version="1.0" standalone="no"?>
<!DOCTYPE svg PUBLIC "-//W3C//DTD SVG 20010904//EN"
 "http://www.w3.org/TR/2001/REC-SVG-20010904/DTD/svg10.dtd">
<svg version="1.0" xmlns="http://www.w3.org/2000/svg"
 width="1024.000000pt" height="1024.000000pt" viewBox="0 0 1024.000000 1024.000000"
 preserveAspectRatio="xMidYMid meet">
<metadata>
Created by potrace 1.14, written by Peter Selinger 2001-2017
</metadata>
<g transform="translate(0.000000,1024.000000) scale(0.100000,-0.100000)"
fill="#000000" stroke="none">
<path d="M3810 9470 c-2 -3 -6 -81 -10 -175 -8 -168 -28 -286 -66 -373 -8 -18
-14 -50 -14 -72 l0 -39 76 2 76 2 -6 48 c-7 63 7 60 21 -5 8 -39 8 -55 -1 -60
-6 -4 -50 -8 -97 -8 l-86 0 -7 -37 c-3 -21 -6 -53 -6 -70 l0 -33 119 0 c66 0
122 -3 124 -7 3 -5 8 -39 12 -76 6 -63 5 -69 -12 -65 -15 3 -19 14 -21 66 l-3
63 -122 -3 -122 -3 -3 -67 c-3 -62 -1 -68 17 -68 17 0 21 8 24 48 l3 47 2 -47
2 -48 119 0 c66 0 126 -2 133 -5 12 -5 14 6 11 57 -2 35 -10 90 -18 123 -7 33
-21 96 -31 140 -9 44 -25 107 -35 140 -52 173 -59 215 -60 343 -1 110 -11 198
-19 182z m43 -539 c-7 -10 -15 10 -19 51 l-4 43 14 -45 c7 -25 11 -47 9 -49z
m-56 2 c-3 -10 -5 -2 -5 17 0 19 2 27 5 18 2 -10 2 -26 0 -35z m-40 -90 c-3
-10 -5 -4 -5 12 0 17 2 24 5 18 2 -7 2 -21 0 -30z m50 5 c-3 -7 -5 -2 -5 12 0
14 2 19 5 13 2 -7 2 -19 0 -25z m103 -97 c0 -16 3 -43 6 -60 5 -24 3 -31 -9
-31 -11 0 -16 14 -19 56 -1 31 -1 58 1 60 12 12 21 1 21 -25z m-163 -68 c-3
-10 -5 -2 -5 17 0 19 2 27 5 18 2 -10 2 -26 0 -35z m110 -155 c-2 -13 -4 -5
-4 17 -1 22 1 32 4 23 2 -10 2 -28 0 -40z m-100 -5 c-3 -10 -5 -4 -5 12 0 17
2 24 5 18 2 -7 2 -21 0 -30z"/>
<path d="M5841 9343 c-1 -13 -17 -40 -36 -61 -19 -22 -32 -42 -29 -45 3 -3 -5
-3 -18 -1 -22 5 -23 5 -3 -10 11 -9 26 -14 34 -11 9 3 12 3 9 -1 -4 -4 2 -18
12 -32 11 -13 20 -33 20 -43 0 -11 5 -19 10 -19 6 0 10 6 10 14 0 7 9 25 20
38 10 14 16 29 12 33 -4 5 -2 5 5 1 6 -3 14 -2 18 4 3 5 15 10 26 10 10 0 19
5 19 10 0 6 -6 10 -13 10 -19 0 -73 60 -85 95 -9 25 -11 27 -11 8z"/>
<path d="M5145 9254 c-11 -3 -69 -16 -130 -31 -180 -42 -235 -87 -235 -192 0
-49 3 -57 36 -87 45 -43 27 -45 -21 -3 -65 57 -71 151 -14 222 23 28 26 36 12
29 -23 -13 -63 -65 -81 -105 -16 -37 -15 -122 2 -155 7 -15 17 -58 21 -96 4
-38 13 -90 21 -115 20 -67 19 -90 -6 -84 -27 7 -41 -32 -30 -83 17 -73 57
-157 79 -166 11 -4 21 -13 21 -20 0 -7 18 -57 39 -111 l39 -98 -56 -92 c-57
-94 -162 -303 -162 -323 0 -7 16 -24 35 -38 19 -15 35 -31 35 -36 0 -5 -23
-21 -51 -36 -50 -25 -51 -26 -46 -62 5 -32 57 -268 73 -327 4 -18 4 -18 -6 -3
-6 10 -35 93 -66 185 -30 92 -60 175 -65 185 -8 15 -2 21 37 40 l47 22 -33 29
-32 29 28 51 c59 109 87 167 83 172 -3 2 -59 -17 -124 -43 -66 -27 -182 -70
-258 -98 l-139 -49 7 -85 c4 -47 8 -96 11 -110 2 -14 -8 10 -22 53 -24 71 -44
99 -44 61 0 -16 -71 -267 -115 -404 -13 -41 -35 -115 -50 -165 -15 -49 -33
-108 -40 -130 -8 -22 -33 -104 -56 -183 -38 -126 -46 -146 -73 -164 -17 -12
-43 -33 -58 -46 -52 -48 -50 -38 48 303 65 226 86 297 99 328 7 16 -5 17 -174
17 l-181 0 -2 -37 c-1 -38 -1 -38 -7 7 -4 25 -5 48 -3 53 2 4 88 7 192 7 l188
0 11 33 c5 17 19 68 31 112 12 43 24 86 27 95 3 10 0 9 -11 -4 -16 -20 -16
-20 -16 0 0 16 -2 17 -11 4 -9 -12 -10 -12 -5 3 3 10 6 44 7 75 1 41 3 50 8
32 7 -23 8 -23 13 -5 4 11 6 112 7 225 0 133 4 206 11 208 20 7 10 21 -17 24
-24 3 -28 8 -31 40 -3 36 -2 37 35 40 35 3 38 6 41 36 l3 32 -69 0 -70 0 -7
60 c-7 61 1 140 14 140 5 0 11 -37 15 -82 7 -87 15 -104 40 -95 13 5 16 25 16
112 l0 105 -164 0 -164 0 -6 -62 c-4 -35 -7 -90 -9 -123 -2 -49 -5 -60 -19
-60 -9 0 -19 -3 -22 -5 -3 -3 -6 -161 -7 -350 -2 -190 -6 -392 -9 -450 -5 -84
-7 -58 -8 128 -1 127 -6 232 -10 232 -5 0 -7 -13 -4 -29 4 -29 4 -29 -59 -36
-35 -4 -119 -5 -187 -3 l-122 3 0 -401 0 -402 -120 -23 -120 -23 0 -423 c0
-236 -4 -423 -9 -423 -24 0 -29 46 -34 364 -6 291 -9 340 -22 350 -13 9 -16
38 -18 159 l-2 147 -25 -1 c-22 -2 -22 -2 -4 -6 21 -4 22 -9 19 -91 -2 -48 -4
-98 -5 -112 l-2 -25 -7 25 -7 25 -6 -27 c-3 -15 -2 -27 1 -26 21 2 31 -4 30
-19 0 -11 -3 -13 -6 -5 -2 6 -12 12 -21 12 -15 0 -15 -2 -2 -10 10 -6 11 -10
3 -10 -7 0 -13 -4 -13 -10 0 -5 9 -10 20 -10 20 0 20 -7 20 -298 l0 -299 -56
8 c-31 4 -57 9 -59 11 -2 2 -5 149 -8 328 l-6 325 -28 5 -28 5 -3 453 c-1 248
-4 452 -6 452 -3 0 -58 -9 -123 -20 -65 -11 -121 -20 -125 -20 -5 0 -8 -151
-8 -335 l0 -336 -57 -104 c-36 -66 -64 -105 -74 -105 -14 0 -17 -30 -22 -256
-3 -141 -8 -258 -10 -260 -2 -2 -18 -1 -35 2 -31 6 -32 9 -32 54 0 45 -2 48
-31 54 -17 3 -48 6 -68 6 -33 0 -43 7 -91 61 l-54 61 -31 -35 c-16 -20 -40
-49 -53 -66 -18 -23 -32 -31 -65 -33 -41 -3 -42 -4 -39 -35 2 -25 -1 -33 -12
-33 -12 0 -16 -10 -16 -39 0 -22 -3 -42 -8 -44 -4 -2 -33 -1 -66 3 l-58 6 5
-30 c3 -17 26 -89 52 -161 25 -71 57 -162 71 -201 l26 -71 210 -6 c116 -4 467
-7 780 -7 312 0 568 -2 568 -4 0 -2 -7 -19 -15 -37 -11 -26 -14 -29 -15 -13 0
15 -8 24 -27 28 -69 15 -1364 -11 -1558 -31 l-70 -7 85 -7 c47 -4 219 -13 382
-20 444 -19 420 -24 -285 -54 -185 -8 -352 -16 -370 -16 -17 -1 2 -6 43 -11
41 -5 453 -11 915 -13 462 -2 846 -4 853 -4 8 -1 12 -10 10 -23 l-3 -23 -805
0 c-443 0 -879 -5 -970 -10 l-165 -9 405 -17 c223 -10 465 -18 538 -18 104 -1
132 -4 132 -15 0 -18 -129 -24 -672 -33 l-438 -6 0 -83 0 -84 842 0 c463 0
844 -2 846 -5 3 -3 -9 -28 -26 -56 -18 -27 -32 -54 -32 -59 0 -5 26 -51 58
-102 76 -122 108 -192 117 -253 4 -27 13 -53 19 -57 6 -4 39 -8 73 -8 57 0 63
-2 67 -22 21 -109 45 -201 77 -300 41 -124 45 -148 30 -177 -8 -14 -3 -24 23
-48 18 -17 46 -58 64 -90 125 -235 331 -475 550 -640 63 -47 116 -92 119 -99
14 -37 -11 -28 -102 37 -138 99 -184 138 -302 252 l-101 99 -383 -6 c-374 -7
-498 -14 -288 -18 l104 -1 -80 -8 c-44 -4 -118 -14 -165 -23 -162 -30 -724
-95 -734 -85 -5 5 13 121 19 127 2 3 73 13 157 23 132 16 236 18 746 19 325 0
592 2 592 5 0 25 -77 119 -94 116 -3 -1 -60 -1 -125 -1 l-120 0 1 138 c0 75 0
185 -1 245 l-1 107 -34 0 c-33 0 -34 2 -114 153 -44 83 -101 188 -126 232 -52
89 -55 104 -26 130 11 10 20 22 20 27 0 4 -41 8 -92 8 l-92 0 27 -28 c15 -15
27 -36 27 -45 0 -9 -40 -86 -89 -170 -49 -83 -106 -187 -127 -229 -34 -69 -41
-78 -66 -78 l-28 0 0 -254 c0 -234 -1 -255 -17 -260 -10 -3 -74 -12 -143 -21
-196 -25 -441 -65 -460 -75 -23 -13 -27 -55 -26 -277 1 -115 5 -186 12 -193 6
-6 143 -26 304 -45 161 -20 296 -38 299 -41 3 -4 0 -9 -8 -12 -8 -3 -34 -23
-58 -45 l-43 -40 0 -128 c0 -150 17 -133 -150 -149 -262 -26 -239 -23 -200
-33 20 -5 582 -11 1303 -14 l1269 -5 -3 71 -4 71 35 24 c19 13 56 49 82 79
l47 55 57 -2 c48 -1 58 -5 65 -23 11 -29 114 -104 217 -156 l82 -42 93 47
c120 62 207 124 207 149 0 16 7 19 43 19 23 0 51 3 63 6 16 4 26 -4 46 -34 15
-22 49 -57 77 -78 l50 -39 1 -73 0 -74 1238 5 c680 3 1253 9 1272 13 28 6 5
11 -115 25 -82 9 -184 20 -226 23 l-76 7 -56 157 c-31 86 -58 166 -61 178 -6
20 -1 21 208 34 117 7 240 10 272 7 47 -5 73 -2 124 16 l65 22 3 56 3 57 -169
-6 c-150 -4 -169 -3 -175 12 -6 14 10 16 168 16 149 0 175 2 175 15 0 13 -26
15 -175 15 l-174 0 -3 63 c-3 61 -4 62 -33 65 -46 5 -55 22 -12 22 28 0 37 4
37 16 0 15 16 16 163 10 122 -5 173 -4 207 6 l45 14 3 67 3 67 -193 2 -193 3
-3 42 c-3 41 -4 42 -48 49 -25 3 -58 4 -75 0 -21 -4 -31 -1 -35 9 -5 12 -25
15 -85 15 l-79 0 0 232 0 231 341 -6 340 -6 22 26 c12 14 28 31 35 39 6 7 12
14 12 16 0 2 -168 2 -373 0 l-372 -3 -24 98 c-13 54 -37 132 -53 173 -41 104
-166 360 -176 360 -5 0 -48 -81 -95 -179 -48 -98 -94 -186 -102 -195 -12 -12
-35 -16 -84 -16 -39 0 -74 -5 -83 -12 -8 -7 -24 -44 -34 -83 -16 -59 -19 -118
-22 -375 l-3 -306 -99 4 c-55 3 -110 2 -123 -1 -18 -5 -87 -85 -87 -102 0 -3
115 -5 256 -5 230 0 255 -2 252 -16 -3 -17 -22 -19 -374 -22 l-160 -2 -115
-110 c-109 -106 -292 -253 -371 -300 -37 -21 -38 -21 -38 -2 0 13 40 50 123
115 118 92 265 234 358 347 55 66 107 144 179 265 29 50 67 104 83 122 25 26
28 37 23 65 -4 25 5 67 39 165 25 73 53 175 63 225 l19 93 84 5 84 5 -2 50
c-1 28 3 65 9 84 11 37 121 236 144 262 13 14 10 23 -21 75 l-36 59 838 5 838
5 3 76 c3 72 2 77 -20 83 -13 3 -135 6 -273 6 -269 0 -775 17 -783 25 -14 14
18 20 116 23 59 1 263 9 454 17 190 8 370 16 400 17 35 1 15 4 -57 10 -60 5
-487 10 -948 11 l-839 2 -27 105 c-16 58 -30 112 -32 120 -4 13 67 15 601 13
333 -2 681 1 774 5 l169 7 28 80 c15 44 50 145 78 225 l51 145 -45 3 -45 3 0
46 c0 35 -3 44 -15 40 -10 -4 -16 3 -21 27 -5 30 -10 34 -47 39 -32 4 -51 15
-80 47 -21 23 -36 47 -34 55 4 9 -5 14 -27 17 -30 3 -35 0 -45 -27 -18 -50
-63 -87 -115 -92 -41 -5 -46 -8 -46 -30 0 -30 -24 -26 -28 5 -7 47 -22 18 -22
-42 0 -66 -9 -83 -41 -78 -9 2 -22 -4 -29 -13 -17 -21 -40 -19 -40 3 0 10 -7
27 -15 38 -12 16 -14 105 -15 604 l0 586 -67 17 c-38 9 -70 17 -73 17 -3 0 -3
-272 0 -605 l5 -605 -45 -17 c-25 -9 -60 -22 -79 -30 -47 -18 -51 -17 -51 17
0 31 -5 33 -51 30 l-26 -1 -6 103 c-3 57 -6 161 -7 231 -1 139 -4 164 -44 307
-14 52 -26 105 -26 118 0 21 -4 22 -65 22 -41 0 -65 -4 -65 -11 0 -6 -6 -25
-14 -42 -8 -18 -24 -63 -37 -102 -15 -48 -33 -80 -56 -103 -23 -21 -36 -46
-40 -70 -3 -20 -10 -42 -15 -49 -6 -7 -7 -147 -2 -357 5 -268 4 -351 -6 -375
-13 -33 -6 -121 11 -121 5 0 9 22 9 49 0 58 7 65 93 96 59 22 62 24 67 61 6
42 -3 38 143 69 55 12 77 21 77 32 0 13 -10 15 -52 10 l-53 -6 44 14 c24 8 51
17 61 20 14 4 17 -2 18 -33 2 -44 -29 -116 -83 -192 -30 -43 -33 -50 -16 -50
10 0 34 6 52 14 19 8 54 16 79 20 l45 5 -45 -13 c-25 -8 -38 -14 -30 -15 24
-1 267 57 290 69 12 6 57 45 101 85 67 61 89 75 131 85 28 6 52 9 54 7 6 -5
-54 -97 -89 -137 -29 -34 -67 -64 -54 -43 3 5 0 10 -8 10 -8 0 -12 -4 -9 -8 2
-4 -2 -10 -8 -12 -10 -4 -10 -6 0 -6 7 -1 11 -5 8 -10 -3 -5 -27 -7 -53 -6
-30 2 -40 0 -28 -5 19 -7 19 -7 -3 -14 -13 -4 -21 -10 -19 -13 3 -2 15 0 26 7
13 6 21 7 21 1 0 -6 -17 -13 -37 -17 -21 -4 -43 -11 -50 -16 -6 -5 -51 -8
-100 -7 -48 0 -142 -6 -208 -15 -66 -9 -160 -20 -210 -24 -52 -5 61 -6 265 -4
373 5 850 -5 850 -18 0 -13 -1524 -19 -1532 -6 -14 20 -9 631 4 644 17 17 -3
15 -41 -4 -30 -15 -35 -15 -66 2 -19 10 -31 21 -26 24 20 12 26 222 23 763 -3
413 -1 577 7 577 8 0 12 -183 13 -632 1 -348 3 -652 3 -676 0 -26 5 -42 12
-42 20 0 33 36 39 102 3 35 8 66 10 70 3 4 5 217 4 473 0 415 2 465 16 465 8
0 12 5 9 10 -4 6 -11 8 -16 5 -5 -4 -9 41 -9 109 0 109 1 116 20 116 23 0 21
42 20 -515 0 -256 11 -626 25 -785 2 -30 7 -127 10 -215 3 -88 8 -221 12 -295
6 -125 7 -130 14 -70 8 77 16 392 26 963 5 322 9 417 19 417 17 0 22 -119 29
-615 6 -505 16 -815 24 -815 4 0 8 57 9 128 2 70 7 339 12 597 14 680 14 692
-8 697 -16 5 -17 17 -15 141 2 85 0 138 -7 142 -6 4 -10 65 -10 156 l0 149
-182 1 c-101 0 -197 2 -214 3 l-31 3 -6 -201 c-8 -304 -9 -1012 -1 -1104 6
-71 9 -82 25 -82 11 0 19 -5 19 -10 0 -11 -16 -8 -93 15 l-42 12 3 569 c2 340
7 570 13 572 15 6 10 22 -6 22 -8 0 -15 9 -15 19 0 11 -4 23 -10 26 -5 3 -10
-3 -10 -14 0 -17 -6 -21 -30 -21 l-30 0 -2 308 -3 307 -97 3 c-115 3 -133 22
-22 22 69 0 75 2 69 18 -4 9 -10 29 -13 45 -2 15 -7 27 -11 27 -3 0 -7 17 -8
38 -2 39 -27 144 -38 162 -4 6 -10 8 -15 5 -10 -6 -24 95 -18 129 3 14 1 31
-3 38 -5 7 -9 -24 -9 -75 0 -79 -2 -89 -19 -94 -19 -5 -27 -28 -36 -108 -3
-22 -8 -47 -11 -55 -4 -8 -8 -33 -8 -54 -1 -22 -8 -42 -14 -44 -18 -6 -14 -20
8 -27 35 -11 21 -25 -25 -25 l-45 0 -2 -227 c-5 -387 -7 -368 62 -585 34 -106
65 -202 70 -213 5 -11 16 -45 24 -75 8 -30 28 -104 45 -165 83 -297 131 -482
131 -498 0 -14 -16 -5 -67 35 l-66 53 -52 185 c-159 563 -251 861 -258 840 -3
-8 -12 -40 -21 -70 l-15 -55 6 85 c3 47 6 89 7 94 0 5 -60 31 -134 58 -74 27
-195 73 -268 102 -120 49 -132 52 -126 32 10 -32 41 -91 80 -151 18 -30 34
-58 34 -63 0 -4 -13 -18 -30 -30 -16 -13 -30 -26 -30 -31 0 -4 18 -14 40 -21
22 -7 40 -19 40 -26 0 -8 -25 -89 -56 -180 -99 -294 -114 -311 -49 -55 25 95
45 183 45 196 0 18 -13 31 -56 56 l-56 32 41 26 c22 14 41 33 41 41 0 30 -101
230 -187 371 l-34 56 36 73 c19 41 38 89 41 106 4 20 13 34 25 37 23 6 62 89
80 169 15 69 8 92 -26 86 -14 -3 -25 -2 -25 1 1 23 41 215 54 255 18 56 21
128 6 157 -9 15 -22 19 -70 19 l-60 0 0 31 c0 79 -96 148 -212 155 -35 1 -72
1 -83 -2z m-328 -486 c-3 -7 -5 -2 -5 12 0 14 2 19 5 13 2 -7 2 -19 0 -25z
m1542 -222 c-9 -8 -10 -5 -5 14 3 14 7 39 8 55 1 20 3 16 5 -14 3 -26 -1 -48
-8 -55z m12 -25 c-9 -6 -12 -25 -10 -62 2 -30 1 -55 -4 -56 -4 -2 -7 -1 -7 2
0 3 0 32 0 65 0 51 3 60 18 60 13 0 14 -2 3 -9z m-2694 -248 c-2 -21 -4 -6 -4
32 0 39 2 55 4 38 2 -18 2 -50 0 -70z m50 5 c-2 -18 -4 -4 -4 32 0 36 2 50 4
33 2 -18 2 -48 0 -65z m90 -5 c-2 -21 -4 -6 -4 32 0 39 2 55 4 38 2 -18 2 -50
0 -70z m-40 5 c-2 -18 -4 -6 -4 27 0 33 2 48 4 33 2 -15 2 -42 0 -60z m2603
-205 c0 -237 -7 -336 -21 -327 -5 3 -9 129 -9 280 0 237 2 274 15 274 13 0 15
-32 15 -227z m50 25 c0 -111 -2 -199 -4 -197 -2 2 -7 93 -11 202 -5 141 -4
197 4 197 8 0 11 -61 11 -202z m70 -73 c0 -151 -4 -275 -9 -275 -13 0 -21 120
-21 343 0 177 2 207 15 207 13 0 15 -37 15 -275z m-1468 -61 l89 -91 -46 -17
c-45 -18 -76 -51 -90 -96 l-7 -25 29 27 29 28 13 -45 c7 -25 22 -57 33 -71 19
-24 20 -28 6 -72 -9 -26 -28 -101 -43 -167 -15 -66 -30 -127 -32 -135 -5 -19
-35 48 -78 176 -54 162 -86 299 -92 405 -6 102 -1 129 40 198 l20 34 21 -29
c11 -16 60 -70 108 -120z m375 94 c35 -69 42 -187 19 -303 -19 -90 -92 -328
-130 -420 -27 -65 -28 -64 -46 35 -7 36 -25 114 -40 175 -27 101 -28 111 -13
127 9 10 24 41 33 69 l17 50 27 -31 c28 -34 34 -25 12 19 -20 38 -82 91 -106
91 -11 0 -20 2 -20 4 0 2 29 32 65 67 36 34 84 86 106 116 23 29 43 53 45 53
2 0 16 -24 31 -52z m-1442 -199 c0 -98 -3 -179 -6 -179 -10 0 -17 194 -11 288
8 137 17 82 17 -109z m2852 -191 c-2 -29 -3 -8 -3 47 0 55 1 79 3 53 2 -26 2
-71 0 -100z m-222 -208 l0 -245 -34 -3 c-24 -3 -31 0 -26 9 11 17 13 79 3 79
-4 0 -8 -9 -8 -21 0 -11 -4 -17 -10 -14 -5 3 -10 2 -10 -4 0 -5 6 -11 13 -14
9 -3 9 -7 0 -19 -8 -9 -14 -64 -16 -159 -2 -117 -3 -110 -2 38 0 143 -3 184
-13 188 -8 3 -38 5 -67 5 -54 0 -54 0 -64 38 -6 20 -11 113 -11 205 l0 168
123 -3 122 -3 0 -245z m-3155 -125 c0 -238 -2 -275 -15 -275 -13 0 -15 36 -15
260 l0 260 -23 0 -24 0 -6 -182 c-4 -99 -7 -224 -7 -275 0 -71 -3 -94 -12 -91
-10 4 -14 70 -16 276 l-2 272 -25 0 -25 0 0 -207 c0 -223 -8 -343 -21 -343 -5
0 -9 131 -9 290 l0 290 100 0 100 0 0 -275z m-863 233 c-3 -7 -5 -2 -5 12 0
14 2 19 5 13 2 -7 2 -19 0 -25z m4248 20 c2 -7 5 -257 7 -556 3 -577 5 -557
-43 -531 -16 8 -19 17 -14 42 3 18 8 248 11 512 3 264 7 495 10 513 5 32 21
43 29 20z m-4348 -115 c-3 -10 -5 -4 -5 12 0 17 2 24 5 18 2 -7 2 -21 0 -30z
m70 0 c-3 -10 -5 -4 -5 12 0 17 2 24 5 18 2 -7 2 -21 0 -30z m3292 -95 l42
-58 -107 0 c-121 0 -118 -7 -35 83 25 26 48 44 51 40 4 -5 26 -34 49 -65z
m-3349 38 c0 -3 -4 -8 -10 -11 -5 -3 -10 -1 -10 4 0 6 5 11 10 11 6 0 10 -2
10 -4z m80 -6 c0 -5 -7 -10 -15 -10 -8 0 -15 5 -15 10 0 6 7 10 15 10 8 0 15
-4 15 -10z m-88 -65 c2 -19 0 -35 -4 -35 -4 0 -8 16 -8 35 0 19 2 35 4 35 2 0
6 -16 8 -35z m71 -5 c3 -11 1 -23 -4 -26 -5 -3 -9 6 -9 20 0 31 6 34 13 6z m6
-92 c1 -5 -3 -8 -9 -8 -5 0 -10 12 -9 28 0 24 1 25 9 7 5 -11 9 -23 9 -27z
m-74 -38 c1 -28 -2 -50 -7 -50 -4 0 -8 26 -8 57 0 69 13 63 15 -7z m68 -25 c4
-8 2 -17 -3 -20 -6 -4 -10 3 -10 14 0 25 6 27 13 6z m-63 -81 c0 -8 -4 -14
-10 -14 -5 0 -10 9 -10 21 0 11 5 17 10 14 6 -3 10 -13 10 -21z m63 11 c4 -8
2 -17 -3 -20 -6 -4 -10 3 -10 14 0 25 6 27 13 6z m4214 -237 c-1 -46 -3 -9 -3
82 0 91 2 128 3 83 2 -46 2 -120 0 -165z m-1407 192 c350 -41 716 -205 995
-448 292 -253 478 -552 593 -952 17 -58 34 -122 37 -142 7 -35 6 -38 -17 -38
-19 0 -26 7 -34 39 -6 22 -7 46 -3 53 11 19 0 58 -16 58 -16 0 -25 45 -18 83
5 23 2 29 -15 34 -21 5 -30 31 -31 92 0 14 -11 35 -26 48 -24 23 -27 30 -29
82 -1 13 -10 29 -21 35 -27 15 -35 27 -35 56 0 34 -26 70 -51 70 -19 0 -24 14
-19 54 2 26 -39 68 -62 60 -12 -4 -18 -1 -16 8 2 7 -3 12 -9 10 -7 -1 -13 2
-13 8 0 5 5 10 10 10 18 0 11 28 -14 57 -24 27 -24 28 -45 9 -22 -20 -30 -9
-9 12 6 6 8 15 4 19 -4 4 -11 1 -16 -7 -6 -9 -10 -10 -10 -3 0 6 5 15 10 18
15 9 12 19 -10 43 -24 26 -33 27 -54 7 -22 -22 -43 -19 -23 3 19 21 22 37 5
26 -6 -4 -8 -3 -4 4 9 14 -11 55 -34 70 -16 10 -22 7 -40 -15 -22 -28 -37 -26
-22 4 14 28 -5 82 -33 95 -20 9 -29 8 -45 -7 -19 -17 -50 -15 -50 4 0 5 7 16
15 25 19 19 19 25 -2 48 -20 22 -41 23 -64 2 -23 -21 -41 -9 -33 22 7 29 -19
64 -47 64 -10 0 -27 -11 -37 -25 -23 -29 -36 -19 -26 19 12 49 -44 97 -66 55
-15 -28 -53 -11 -55 25 -1 42 -41 60 -65 31 -7 -8 -23 -15 -36 -15 -21 0 -23
4 -18 24 7 29 -18 56 -52 56 -17 0 -24 -6 -24 -19 0 -24 -13 -33 -34 -25 -10
4 -16 18 -16 35 0 18 -7 32 -21 39 -25 14 -49 6 -49 -14 0 -22 -57 0 -63 25
-8 30 -55 26 -63 -7 l-7 -26 -36 36 c-43 42 -76 47 -85 14 -5 -19 -8 -21 -16
-8 -5 8 -10 11 -10 5 0 -5 -4 -3 -10 5 -7 12 -10 11 -17 -5 -7 -19 -8 -18 -13
5 -7 30 -35 38 -60 15 -22 -20 -62 -15 -90 10 -20 18 -22 18 -31 2 -6 -9 -20
-17 -32 -18 -12 0 -16 -3 -9 -6 6 -2 12 -9 12 -14 0 -4 -6 -6 -14 -3 -8 3 -18
-1 -22 -8 -6 -9 -10 -6 -14 12 -9 37 -35 36 -85 -5 l-45 -37 0 26 c0 22 -4 26
-29 26 -29 0 -41 -14 -41 -51 0 -26 -22 -24 -48 6 -36 41 -72 27 -72 -29 -1
-26 -2 -28 -11 -13 -11 19 -39 24 -39 6 0 -5 4 -8 9 -5 4 3 6 -7 3 -21 l-5
-27 -15 32 c-11 22 -23 32 -39 32 -14 0 -23 -6 -23 -15 0 -21 -33 -35 -76 -32
-32 2 -41 -2 -49 -20 -5 -13 -13 -23 -18 -23 -4 0 -5 -5 -2 -10 4 -6 1 -18 -6
-26 -10 -13 -15 -12 -36 8 -32 30 -58 15 -58 -33 0 -36 -10 -59 -26 -59 -5 0
-9 6 -9 14 0 27 -60 36 -79 12 -9 -10 -9 -20 0 -40 11 -23 10 -28 -7 -40 -15
-12 -20 -12 -22 -2 -2 7 -14 19 -28 27 -23 12 -27 11 -44 -11 -10 -13 -16 -29
-13 -36 2 -6 -3 -14 -11 -17 -9 -4 -16 -14 -16 -22 0 -15 -2 -15 -22 -1 -24
17 -48 6 -48 -21 0 -8 -6 -21 -14 -29 -8 -7 -17 -19 -19 -26 -4 -10 -8 -10
-16 2 -5 8 -12 12 -14 10 -2 -3 -17 -22 -32 -44 -29 -38 -29 -39 -10 -53 19
-14 17 -15 -17 -9 -31 6 -39 3 -52 -16 -9 -12 -16 -30 -16 -40 0 -11 -14 -23
-34 -32 -35 -15 -61 -48 -48 -60 4 -4 -1 -12 -11 -17 -9 -6 -17 -16 -17 -23 0
-8 -9 -16 -20 -19 -22 -6 -25 -13 -35 -70 -5 -28 -10 -37 -21 -33 -17 7 -57
-52 -49 -73 8 -19 -4 -53 -16 -45 -20 12 -37 -18 -43 -76 -6 -50 -10 -59 -29
-62 -18 -2 -22 -10 -23 -43 -1 -66 -3 -73 -24 -80 -13 -4 -20 -14 -19 -28 5
-62 -2 -99 -19 -104 -15 -4 -17 -13 -14 -69 l4 -64 -31 0 c-31 0 -32 1 -25 34
14 76 94 336 127 414 240 561 749 978 1339 1096 68 14 139 27 158 29 74 8 349
6 430 -3z m-1726 -87 c9 -108 8 -431 -2 -437 -5 -3 -32 -8 -60 -12 l-52 -7 6
79 c3 44 9 97 14 119 5 22 10 92 11 155 l3 115 -77 0 c-42 -1 -77 0 -77 2 0
13 98 48 150 53 36 4 68 8 71 9 3 0 9 -33 13 -76z m-1144 46 c0 -5 -4 -9 -10
-9 -5 0 -10 7 -10 16 0 8 5 12 10 9 6 -3 10 -10 10 -16z m57 -11 c-3 -7 -5 -2
-5 12 0 14 2 19 5 13 2 -7 2 -19 0 -25z m4869 -108 c-17 -43 -13 -65 10 -56 8
3 14 1 14 -4 0 -6 -13 -10 -29 -10 -30 0 -41 -15 -41 -53 1 -21 1 -21 14 -4
12 16 14 16 20 1 13 -33 7 -45 -21 -42 -24 3 -28 -1 -31 -24 -4 -30 14 -38 36
-16 14 14 14 13 13 -109 -1 -68 2 -83 14 -83 8 0 15 8 15 18 0 14 2 15 10 2
17 -26 12 -42 -10 -35 -12 4 -27 1 -35 -5 -17 -14 -17 -13 -17 60 0 25 3 53 8
64 8 21 -6 51 -21 45 -12 -5 -12 -9 -16 -284 -6 -349 -15 -360 -17 -20 -1 176
3 347 8 380 5 33 26 97 47 142 37 84 59 108 29 33z m104 -63 c18 -56 5 -57
-14 -1 -18 54 -19 62 -7 49 5 -6 14 -27 21 -48z m-4125 5 l110 -28 3 -156 c3
-175 8 -164 -80 -172 l-53 -6 40 14 40 14 -40 2 c-22 1 -32 4 -22 7 13 3 15 8
7 17 -5 7 -11 55 -13 107 -1 72 -5 96 -17 101 -12 5 -12 7 3 7 9 1 17 6 17 11
0 6 14 10 30 10 33 0 41 16 13 24 -10 2 -52 14 -93 26 -70 21 -81 21 -203 10
-71 -6 -131 -10 -133 -7 -3 3 28 10 68 17 40 6 91 15 113 20 66 13 95 11 210
-18z m4079 2 c22 -8 20 -19 -4 -21 -11 -1 -20 4 -20 13 0 16 2 16 24 8z
m-4987 -121 c-2 -16 -4 -3 -4 27 0 30 2 43 4 28 2 -16 2 -40 0 -55z m4972 20
c1 -7 -8 -13 -19 -13 -19 0 -19 3 -4 48 6 15 7 15 14 -3 5 -11 9 -26 9 -32z
m-4127 -103 c3 -89 9 -145 16 -152 7 -7 12 -18 12 -26 0 -12 -4 -11 -25 2 -13
9 -28 16 -32 16 -4 0 -7 -46 -5 -101 2 -65 -1 -106 -8 -113 -8 -8 -10 55 -10
231 1 132 4 250 7 262 3 12 13 21 23 21 16 0 18 -15 22 -140z m4217 72 c1 -26
4 -55 7 -64 4 -12 0 -18 -10 -18 -9 0 -16 4 -16 9 0 6 -8 10 -17 10 -17 0 -85
8 -91 10 -1 1 3 11 9 23 11 21 12 21 25 3 11 -15 16 -16 29 -5 12 10 16 9 21
-4 3 -9 10 -16 15 -16 14 0 22 49 11 63 -6 7 -8 23 -5 36 8 32 19 10 22 -47z
m-5127 36 c-7 -7 -12 -8 -12 -2 0 14 12 26 19 19 2 -3 -1 -11 -7 -17z m2979
-13 c95 -17 239 -57 308 -87 236 -101 400 -208 562 -368 340 -335 505 -751
486 -1224 -13 -307 -97 -568 -261 -813 -28 -43 -63 -91 -76 -107 -127 -151
-187 -210 -297 -292 -223 -168 -472 -277 -733 -321 -122 -20 -363 -20 -490 1
-192 31 -371 96 -560 205 -132 75 -238 158 -355 276 -278 281 -431 623 -453
1014 -30 501 129 914 488 1271 358 356 897 530 1381 445z m2104 15 c11 -17 -5
-32 -21 -19 -7 6 -11 15 -8 20 7 12 21 11 29 -1z m-4384 -37 c5 -103 -4 -821
-10 -831 -8 -14 -21 439 -21 710 0 125 2 148 15 148 9 0 15 -10 16 -27z m80
-200 c3 -126 2 -316 -1 -423 -7 -274 -18 -156 -26 298 -6 310 -5 352 8 352 13
0 16 -33 19 -227z m-160 -3 c-1 -285 -12 -541 -22 -534 -5 3 -9 174 -9 380 0
337 2 375 16 372 14 -3 16 -30 15 -218z m-596 200 c3 -6 -4 -10 -17 -10 -18 0
-20 2 -8 10 19 12 18 12 25 0z m-85 -10 c0 -5 -7 -7 -15 -4 -8 4 -15 8 -15 10
0 2 7 4 15 4 8 0 15 -4 15 -10z m223 3 c-7 -2 -19 -2 -25 0 -7 3 -2 5 12 5 14
0 19 -2 13 -5z m-144 -60 c14 -10 13 -12 -6 -10 -19 1 -23 7 -22 32 1 21 3 24
6 10 3 -11 13 -25 22 -32z m-79 10 c0 -19 -3 -24 -10 -17 -6 6 -8 18 -4 27 9
24 14 21 14 -10z m230 -13 c0 -5 -5 -10 -11 -10 -5 0 -7 5 -4 10 3 6 8 10 11
10 2 0 4 -4 4 -10z m4864 -47 c8 -19 -15 -38 -25 -21 -8 13 -1 38 11 38 4 0
11 -8 14 -17z m-5094 -9 c0 -8 -4 -12 -10 -9 -5 3 -10 10 -10 16 0 5 5 9 10 9
6 0 10 -7 10 -16z m85 7 c17 -7 17 -8 -8 -13 -19 -4 -27 -1 -27 8 0 15 6 16
35 5z m5073 -16 c2 -1 -9 -5 -23 -7 -20 -4 -25 -1 -25 14 0 16 3 17 23 7 12
-6 23 -13 25 -14z m36 -27 c-4 -6 -11 -25 -15 -42 -5 -24 -7 -17 -8 34 -1 61
0 63 15 42 8 -12 12 -27 8 -34z m-5064 -14 c-8 -27 -8 -26 -9 16 0 32 2 40 9
29 5 -9 6 -28 0 -45z m80 46 c0 -5 -2 -10 -4 -10 -3 0 -8 5 -11 10 -3 6 -1 10
4 10 6 0 11 -4 11 -10z m-130 -62 c0 -4 -7 -8 -15 -8 -10 0 -15 10 -15 28 1
26 1 26 15 8 8 -11 15 -23 15 -28z m5056 -11 c22 -13 16 -27 -8 -23 -13 1 -23
8 -22 14 4 41 6 47 11 32 3 -8 12 -19 19 -23z m-4906 3 c13 -8 13 -10 -2 -10
-9 0 -20 5 -23 10 -8 13 5 13 25 0z m1110 1 c0 -6 -15 -22 -34 -36 -26 -19
-54 -28 -120 -37 -130 -16 -131 2 -4 41 57 18 108 34 113 36 21 7 45 5 45 -4z
m3021 -27 c42 -14 85 -31 95 -39 17 -13 15 -14 -32 -15 -62 0 -142 23 -178 51
-54 43 -13 44 115 3z m-4282 -23 c16 -10 6 -31 -15 -31 -8 0 -14 9 -14 20 0
22 7 25 29 11z m138 -23 c-3 -7 -5 -2 -5 12 0 14 2 19 5 13 2 -7 2 -19 0 -25z
m-221 -15 c-11 -11 -17 4 -9 23 7 18 8 18 11 1 2 -10 1 -21 -2 -24z m-418 -4
l24 -29 -46 0 c-39 0 -44 2 -39 18 8 21 23 42 32 41 3 0 16 -13 29 -30z m5510
-20 c-18 -11 -28 12 -16 35 11 20 11 20 20 -4 6 -16 5 -26 -4 -31z m972 26
l23 -25 -56 0 -57 0 16 25 c9 14 24 25 33 25 10 0 28 -11 41 -25z m-870 -9
c14 -18 13 -19 -12 -13 -15 4 -30 3 -33 -3 -4 -6 -11 -5 -19 3 -17 15 1 29 27
21 10 -3 17 0 17 7 0 7 1 10 3 8 1 -2 9 -13 17 -23z m-147 8 c3 -4 2 -16 -4
-26 -13 -24 -35 -9 -26 16 7 17 19 21 30 10z m-5279 -60 c9 -3 16 -17 16 -30
0 -27 -18 -30 -97 -15 -26 6 -79 13 -117 16 -38 4 -64 11 -60 15 13 13 231 24
258 14z m5381 -48 c-4 -21 -13 -36 -21 -36 -11 0 -12 4 -4 19 5 11 10 32 10
47 0 20 3 25 11 17 6 -6 8 -25 4 -47z m-595 -108 l-1 -153 -24 55 c-13 30 -24
64 -25 75 0 32 34 175 42 175 5 0 8 -69 8 -152z m482 120 c-6 -6 -15 -9 -18
-5 -4 3 -4 14 0 23 5 13 9 15 18 6 9 -9 9 -15 0 -24z m64 16 c-3 -9 -6 -20 -6
-25 0 -15 -20 -10 -27 7 -3 9 0 20 8 25 21 13 32 11 25 -7z m89 -3 c3 -5 1
-12 -5 -16 -5 -3 -10 1 -10 9 0 18 6 21 15 7z m-4141 -229 l-24 -67 0 127 c0
162 9 186 31 85 17 -77 17 -78 -7 -145z m4509 205 c3 -8 -1 -14 -8 -14 -7 0
-11 6 -8 14 3 7 6 13 8 13 2 0 5 -6 8 -13z m43 -14 c-7 -7 -26 7 -26 19 0 6 6
6 15 -2 9 -7 13 -15 11 -17z m-5826 -33 c63 -11 116 -20 118 -20 1 0 2 -8 2
-18 0 -15 14 -21 73 -32 39 -8 75 -17 78 -22 3 -5 16 -5 28 0 18 6 10 11 -46
24 -79 19 -128 37 -121 43 12 12 382 -88 394 -106 6 -11 -13 -7 -120 22 -39
10 -75 15 -83 10 -15 -8 202 -65 227 -60 8 2 33 -4 56 -13 40 -16 65 -43 78
-84 6 -19 3 -21 -21 -18 -17 2 -20 1 -8 -3 11 -3 30 -16 43 -30 12 -14 27 -21
34 -17 7 5 4 10 -10 15 -12 5 -22 11 -22 14 0 8 60 -2 98 -15 30 -11 32 -15
32 -61 l0 -49 165 0 c155 0 165 -1 165 -19 0 -18 -20 -19 -767 -14 -423 3
-770 7 -772 9 -2 2 -2 7 1 10 4 3 260 9 570 12 402 5 529 9 443 14 -66 4 -160
16 -210 27 -49 11 -130 29 -180 40 -124 27 -205 59 -238 94 -38 41 -88 117
-77 117 6 0 42 -31 80 -70 38 -38 74 -70 79 -70 5 0 18 -3 28 -7 12 -4 10 0
-7 14 -14 11 -43 46 -65 76 -57 79 -58 79 -380 140 -64 12 -70 15 -70 37 0 23
5 26 60 31 87 10 213 2 345 -21z m5320 -2 c0 -5 -6 -8 -12 -8 -7 0 -25 -7 -40
-14 -30 -16 -34 -9 -18 29 7 17 9 17 9 3 1 -25 28 -22 36 3 6 17 9 19 16 8 5
-8 9 -17 9 -21z m468 -10 c-5 -15 -107 -46 -173 -53 l-50 -5 65 21 c36 11 81
27 100 34 44 18 63 18 58 3z m-110 -93 c16 -34 17 -32 -23 -37 -38 -4 -41 -1
-23 37 14 32 32 32 46 0z m-15 -95 c-6 -23 -19 -26 -26 -6 -6 16 1 26 19 26 7
0 10 -8 7 -20z m22 -100 c-11 -5 -27 -9 -35 -9 -13 -1 -13 0 0 9 8 5 24 9 35
9 l20 0 -20 -9z m12 -96 c-3 -3 -12 -4 -19 -1 -8 3 -5 6 6 6 11 1 17 -2 13 -5z
m76 -1 c-13 -2 -33 -2 -45 0 -13 2 -3 4 22 4 25 0 35 -2 23 -4z m-5002 -411
l149 3 0 -27 0 -28 -204 0 c-215 0 -266 5 -266 25 0 14 52 25 118 25 36 0 42
3 43 23 l2 22 4 -23 c5 -23 5 -23 154 -20z m439 -12 c6 -12 10 -33 8 -47 -2
-21 -9 -27 -31 -28 -36 -1 -40 6 -32 55 8 45 36 55 55 20z m3660 -30 c0 -36
-3 -40 -24 -40 -19 0 -26 7 -31 30 -8 37 0 50 31 50 21 0 24 -4 24 -40z m683
34 c38 -7 51 -22 20 -24 -210 -11 -440 -19 -450 -16 -7 3 -13 15 -13 26 0 19
6 20 203 20 111 0 219 -3 240 -6z m-4463 -43 c-12 -43 -27 -67 -73 -119 -23
-26 -60 -69 -81 -95 -33 -40 -66 -61 -66 -42 0 13 36 73 73 125 104 143 167
199 147 131z m3905 -13 c51 -60 155 -219 155 -238 -1 -16 -28 11 -110 110 -25
29 -57 67 -71 84 -14 17 -29 43 -33 59 -10 41 16 35 59 -15z m-3789 -85 c2
-31 0 -33 -32 -33 -32 0 -34 2 -34 36 0 34 1 35 32 32 29 -3 33 -7 34 -35z
m3674 2 c0 -31 -3 -35 -25 -35 -22 0 -25 4 -25 35 0 31 3 35 25 35 22 0 25 -4
25 -35z m-3686 -122 c-1 -32 -4 -36 -28 -38 -24 -1 -26 3 -26 37 0 35 2 38 28
38 25 0 27 -3 26 -37z m3678 5 c-9 -9 -12 -7 -12 12 0 19 3 21 12 12 9 -9 9
-15 0 -24z m-3677 -123 c0 -36 -3 -40 -27 -43 -27 -3 -28 -2 -28 43 0 45 1 46
28 43 24 -3 27 -7 27 -43z m3685 3 c0 -23 -4 -28 -25 -28 -21 0 -25 5 -25 30
0 26 3 29 25 28 20 -2 25 -8 25 -30z m-3680 -108 c0 -16 0 -33 0 -37 0 -4 -10
-8 -24 -10 -18 -3 -25 2 -30 19 -12 47 -8 58 24 58 27 0 30 -3 30 -30z m3670
1 c0 -31 -25 -49 -34 -25 -3 8 0 14 7 15 9 0 9 2 0 6 -21 8 -15 33 7 33 15 0
20 -7 20 -29z m126 -3 c22 5 9 -33 -28 -83 l-30 -40 6 40 c3 22 6 58 6 80 1
38 1 39 16 20 8 -11 22 -19 30 -17z m-3916 -53 c0 -30 -2 -55 -4 -55 -5 0 -66
95 -66 103 0 4 16 7 35 7 l35 0 0 -55z m118 -33 c7 -5 15 -24 18 -44 5 -29 3
-36 -14 -40 -29 -8 -38 2 -46 50 -5 36 -4 42 11 42 10 0 24 -4 31 -8z m3672
-24 c0 -42 -13 -63 -34 -55 -10 4 -16 18 -16 40 0 38 6 47 32 47 14 0 18 -8
18 -32z m-3647 -85 c3 -5 8 -29 12 -54 6 -41 5 -47 -14 -52 -26 -7 -30 0 -38
63 -5 46 -4 50 15 50 11 0 23 -3 25 -7z m3623 -50 c-11 -79 -46 -86 -46 -9 0
48 5 56 33 56 18 0 19 -5 13 -47z m539 -168 l39 -90 4 -292 4 -293 -40 0 c-23
0 -44 -4 -47 -10 -3 -5 -11 -10 -17 -10 -9 0 -8 439 2 800 0 13 21 -25 55
-105z m-4123 48 c19 -42 19 -47 4 -58 -21 -16 -20 -25 3 -25 14 0 23 -13 34
-44 14 -39 13 -45 -1 -60 -15 -15 -15 -16 4 -16 27 0 70 -85 53 -106 -9 -11
-8 -15 5 -20 24 -9 73 -97 58 -102 -16 -5 -15 -22 1 -22 16 0 49 -35 67 -69
10 -20 9 -26 -7 -43 -19 -19 -20 -18 -47 34 -16 29 -41 73 -57 98 -15 25 -31
59 -35 75 -4 17 -10 32 -14 35 -13 10 -130 338 -130 365 0 3 9 5 21 5 14 0 26
-13 41 -47z m3561 15 c-21 -93 -45 -114 -51 -44 -4 41 11 66 38 66 14 0 17 -6
13 -22z m-4133 -73 c0 -48 4 -75 11 -75 7 0 10 20 9 53 -2 28 -1 63 0 77 l2
25 8 -25 c4 -14 8 -48 9 -77 1 -28 6 -55 13 -59 8 -5 9 13 4 69 -4 43 -5 77
-2 77 2 0 12 -34 21 -76 16 -70 28 -85 37 -42 2 14 8 10 27 -17 27 -40 25 -47
-18 -49 -16 -1 -32 -4 -36 -7 -9 -9 6 -139 16 -139 5 0 9 29 9 65 0 36 2 65 5
65 13 0 65 -45 65 -56 0 -6 -10 -14 -21 -17 -15 -4 -20 -11 -15 -22 3 -9 6
-23 6 -32 0 -9 6 -13 15 -9 12 4 15 -2 14 -27 -1 -18 -3 -24 -6 -14 -3 10 -10
16 -16 14 -18 -6 -22 -147 -4 -147 7 0 17 4 22 9 6 5 19 5 30 1 15 -5 10 -8
-23 -13 l-42 -7 0 -96 c0 -76 3 -94 13 -87 20 15 51 10 55 -9 3 -17 -12 -18
-200 -18 -112 0 -220 -3 -240 -6 l-38 -7 0 212 0 211 85 0 85 0 0 65 c0 50 -3
65 -14 65 -12 0 -13 -11 -9 -55 6 -57 1 -64 -30 -41 -15 12 -16 18 -8 35 6 11
11 33 11 50 0 42 9 61 30 61 11 0 23 15 34 45 23 59 32 63 32 12 -1 -23 3 -44
9 -47 10 -5 10 -5 20 83 9 82 25 71 25 -18z m4588 -350 l-3 -385 -38 -37 -37
-38 0 340 0 340 37 83 c20 45 38 82 40 82 2 0 2 -173 1 -385z m-488 318 c0 -7
-51 -151 -72 -203 l-10 -25 -18 22 c-22 28 -15 61 16 75 20 9 23 17 21 58 -2
51 14 80 44 80 11 0 19 -3 19 -7z m-96 -242 c5 -8 -74 -171 -110 -226 l-18
-27 -17 23 c-13 18 -15 28 -7 44 18 34 51 65 69 65 16 0 17 4 9 26 -18 46 50
134 74 95z m-3754 -27 c0 -8 -4 -14 -10 -14 -5 0 -10 9 -10 21 0 11 5 17 10
14 6 -3 10 -13 10 -21z m56 -11 c-11 -11 -19 6 -11 24 8 17 8 17 12 0 3 -10 2
-21 -1 -24z m-60 -130 c-10 -26 -18 -8 -9 23 5 21 8 24 11 11 2 -10 1 -25 -2
-34z m-56 -91 c0 -21 -2 -24 -10 -12 -13 20 -13 53 0 45 6 -3 10 -18 10 -33z
m667 -21 c16 -23 21 -41 16 -59 -4 -17 -2 -23 5 -18 19 12 71 -22 79 -52 7
-29 29 -51 51 -52 20 0 43 -27 36 -43 -3 -9 8 -22 32 -36 30 -18 39 -19 51 -9
14 11 15 9 9 -19 -7 -29 -4 -33 28 -48 27 -13 40 -15 49 -6 18 14 29 3 17 -19
-10 -20 16 -48 62 -68 23 -9 29 -9 37 6 15 26 26 6 13 -23 -11 -23 -9 -27 12
-35 13 -5 40 -12 59 -15 26 -5 37 -13 39 -28 2 -14 17 -25 50 -36 26 -9 58
-26 71 -39 21 -20 34 -23 78 -21 46 2 54 0 51 -14 -3 -17 42 -42 58 -32 13 8
68 -15 74 -31 5 -12 17 -14 64 -8 55 6 59 5 65 -15 5 -20 10 -21 60 -15 48 6
56 4 75 -16 17 -19 24 -21 36 -11 22 19 100 10 104 -11 3 -16 -5 -18 -64 -18
-181 0 -450 75 -674 187 -159 80 -248 138 -378 248 -146 123 -345 356 -327
385 12 19 38 7 62 -29z m2998 28 c7 -11 -54 -109 -67 -109 -5 0 -8 -6 -8 -12
0 -7 -12 -27 -28 -43 -15 -17 -47 -53 -72 -80 -82 -91 -184 -176 -310 -260
-279 -185 -536 -280 -845 -315 -133 -15 -138 -14 -129 13 3 12 8 24 10 26 7 8
89 1 92 -8 5 -16 32 -13 38 4 8 21 72 31 97 15 17 -10 23 -9 36 8 18 23 91 41
91 23 0 -18 21 -13 39 11 13 16 32 22 74 26 44 3 58 9 62 23 7 20 47 35 64 25
13 -9 60 16 85 43 14 16 27 20 45 16 20 -4 33 2 60 30 19 19 42 35 53 35 30 0
58 19 58 40 0 14 10 21 36 26 23 4 52 22 81 50 28 27 54 44 69 44 18 0 24 5
24 23 0 24 53 67 83 67 13 0 16 6 11 24 -5 20 0 27 25 40 16 9 38 16 49 16 15
0 18 6 14 29 -3 22 2 33 24 50 17 13 34 19 47 15 17 -5 19 -3 12 35 -5 33 -4
41 9 41 8 0 20 9 26 20 12 22 35 26 45 9z m-3612 -46 c3 -24 1 -43 -4 -43 -5
0 -9 21 -9 47 0 56 5 54 13 -4z m10 -68 c7 -16 -8 -29 -23 -20 -10 6 -2 35 10
35 4 0 10 -7 13 -15z m67 -11 c0 -8 -10 -14 -25 -14 -29 0 -33 15 -8 29 21 11
33 6 33 -15z m4670 -100 c0 -3 -11 -24 -24 -47 -13 -23 -45 -92 -71 -153 -53
-126 -114 -209 -185 -251 l-45 -27 33 37 c25 30 32 47 32 79 0 34 6 47 33 70
21 20 25 26 10 18 -25 -11 -215 -51 -220 -46 -5 4 54 39 154 91 48 25 97 62
148 113 79 79 92 105 28 55 -60 -47 -182 -117 -253 -145 -52 -21 -127 -54
-193 -86 -12 -6 32 98 56 132 51 72 131 135 195 152 46 12 302 19 302 8z m136
-20 c-3 -9 -6 -21 -6 -27 0 -8 -15 -11 -45 -9 -25 2 -45 7 -45 11 1 23 29 37
79 40 17 1 22 -3 17 -15z m464 -49 c-6 -11 -400 -17 -400 -6 0 4 3 11 7 15 11
11 399 2 393 -9z m-1651 -172 c-17 -15 -38 -42 -45 -60 -17 -39 -18 -126 -3
-155 7 -13 7 -18 1 -14 -25 15 -35 77 -22 132 13 53 64 124 90 124 6 0 -3 -12
-21 -27z m214 4 c31 -20 67 -93 67 -135 0 -40 -21 -91 -47 -114 -11 -10 -44
-23 -75 -29 -49 -10 -59 -9 -95 10 -62 31 -104 114 -89 174 9 36 67 96 101
106 46 12 110 7 138 -12z m-3611 -11 c26 -20 40 -67 33 -113 -7 -50 -18 -60
-73 -69 -46 -7 -49 -4 -26 31 18 28 16 101 -3 98 -7 -2 -13 6 -13 17 0 11 -4
20 -10 20 -5 0 -10 -12 -10 -27 0 -51 -20 -103 -47 -120 -34 -22 -274 -33
-298 -13 -11 9 -15 34 -15 95 0 45 3 85 7 88 3 4 103 7 222 7 161 -1 220 -4
233 -14z m188 -1 c21 -26 -63 -195 -86 -172 -2 2 1 19 6 38 11 37 5 79 -16
122 l-15 27 50 0 c31 0 53 -5 61 -15z m4420 -76 c0 -21 -2 -22 -131 -17 -103
4 -132 2 -136 -9 -3 -7 -12 -13 -20 -13 -11 0 -10 7 7 30 l21 30 130 0 c125 0
129 -1 129 -21z m-4673 -11 c-3 -8 -6 -5 -6 6 -1 11 2 17 5 13 3 -3 4 -12 1
-19z m3903 -1 c0 -35 -8 -38 -51 -15 -22 11 -42 18 -45 16 -2 -3 9 -11 25 -17
33 -14 41 -34 41 -106 0 -52 -26 -110 -55 -122 -26 -9 -27 3 -4 46 26 51 21
104 -17 168 -13 23 -24 44 -24 47 0 3 29 6 65 6 61 0 65 -1 65 -23z m-3411
-34 c88 -53 163 -128 181 -183 12 -35 25 -51 62 -75 26 -16 48 -37 48 -45 0
-8 -11 -37 -24 -65 -64 -139 -150 -175 -346 -145 -98 15 -106 18 -141 47 -37
32 -89 100 -89 119 0 7 9 16 20 19 25 8 50 54 50 92 0 15 -11 52 -25 82 l-25
53 21 34 c36 59 108 101 174 103 18 1 56 -14 94 -36z m4116 13 c17 -1 -22 -3
-85 -4 -63 -1 -110 2 -104 6 11 6 119 6 189 -2z m-1285 -34 c99 -100 18 -265
-105 -212 -18 8 -17 9 7 9 37 1 79 18 94 39 19 24 17 77 -3 93 -15 13 -16 11
-10 -18 10 -50 -25 -86 -87 -87 -53 -1 -66 11 -66 60 0 40 34 84 65 84 28 0
49 -32 40 -60 -4 -12 -2 -20 4 -20 19 0 12 53 -11 77 -28 30 -49 29 -80 -4
-31 -33 -45 -92 -29 -122 10 -17 9 -21 -3 -21 -23 0 -36 33 -36 87 0 41 5 54
28 75 41 39 63 47 115 48 40 0 53 -5 77 -28z m486 -59 c10 -55 -35 -105 -64
-70 -8 9 -6 21 8 42 11 17 20 46 20 65 1 33 2 34 15 16 8 -11 18 -34 21 -53z
m-4108 -13 c71 0 73 -1 92 -32 23 -38 28 -136 8 -156 -7 -7 -31 -12 -55 -12
l-44 0 16 31 c18 34 17 110 -2 117 -8 2 -13 -6 -13 -22 0 -41 -45 -122 -72
-130 -13 -3 -76 -6 -141 -6 -137 0 -131 -5 -132 110 0 119 -6 114 143 107 70
-4 160 -7 200 -7z m3385 -55 c3 -36 2 -52 -3 -40 -8 19 -14 113 -6 104 2 -2 6
-31 9 -64z m-3134 29 c6 -14 14 -59 18 -99 l6 -74 -37 -6 c-50 -10 -70 -1 -56
24 17 33 12 113 -10 149 l-20 32 44 0 c36 0 45 -4 55 -26z m161 4 c0 -17 3
-19 9 -9 12 19 33 -46 36 -114 l3 -53 -36 -6 c-71 -11 -69 -13 -75 74 -3 49
-12 90 -21 105 l-16 25 50 0 c45 0 50 -2 50 -22z m764 6 c14 -13 16 -47 16
-219 0 -194 -1 -203 -20 -208 -20 -5 -20 0 -20 219 0 123 2 224 4 224 3 0 12
-7 20 -16z m1946 -207 c0 -118 -3 -217 -6 -220 -4 -3 -15 -2 -26 4 -18 10 -19
19 -12 207 6 183 12 222 35 222 5 0 9 -96 9 -213z m605 173 c-3 -5 1 -10 9
-10 25 0 103 -58 110 -82 9 -34 7 -93 -3 -120 -5 -13 -21 -35 -36 -50 -26 -26
-34 -28 -106 -28 -57 0 -79 4 -79 13 0 9 21 12 74 10 68 -1 77 1 100 23 30 31
41 73 30 122 -8 37 -8 36 -15 -22 -5 -48 -12 -64 -39 -90 -21 -20 -34 -27 -37
-18 -3 7 -23 12 -49 12 -43 0 -84 24 -84 50 0 15 26 12 40 -5 15 -18 53 -20
48 -2 -3 6 -17 14 -33 17 -46 8 -47 38 -3 78 27 25 40 46 44 73 4 24 12 39 21
39 8 0 11 -4 8 -10z m94 -26 c14 -12 -19 -1 -35 12 -18 14 -18 14 6 3 14 -6
27 -13 29 -15z m-2344 -78 c66 -25 126 -46 133 -46 19 0 14 -14 -17 -44 l-28
-27 -145 70 c-129 62 -146 73 -151 98 -8 41 -1 44 46 18 23 -13 96 -44 162
-69z m1536 55 c-6 -30 -22 -40 -231 -141 l-65 -32 -27 33 -28 33 93 31 c96 33
215 83 232 97 20 18 32 8 26 -21z m325 7 c8 -28 -2 -35 -46 -33 -33 2 -38 0
-29 -12 17 -19 5 -27 -14 -9 -8 8 -17 12 -21 9 -3 -4 -6 -2 -6 4 0 22 28 35
49 24 25 -14 34 -14 26 -1 -9 14 8 13 23 -2 9 -9 12 -9 12 0 0 6 -9 16 -20 22
-14 7 -20 7 -20 0 0 -5 -8 -10 -17 -10 -17 1 -17 2 0 15 25 18 56 15 63 -7z
m704 -19 c36 -50 47 -101 30 -137 l-12 -27 -13 39 c-18 50 -23 55 -76 64 -39
7 -44 10 -41 32 4 26 47 69 69 70 7 0 26 -19 43 -41z m-1847 2 c7 -27 0 -31
-54 -31 -50 0 -63 8 -53 34 4 12 19 16 54 16 39 0 49 -4 53 -19z m1299 -53
c52 -36 65 -50 77 -86 42 -134 -65 -248 -197 -212 -53 14 -107 65 -121 115
-11 42 -5 89 11 79 5 -3 7 -12 4 -20 -8 -21 20 -78 54 -113 40 -40 88 -48 146
-26 80 30 104 131 47 202 -15 19 -32 43 -38 52 -15 24 -27 31 -57 31 -16 0
-28 5 -28 10 0 21 41 8 102 -32z m886 26 l37 -16 -30 -10 c-16 -6 -37 -17 -46
-25 -15 -13 -17 -10 -21 26 -4 47 3 50 60 25z m-130 -31 c3 -10 -14 -13 -62
-13 -36 0 -66 2 -66 5 0 23 120 30 128 8z m352 2 c0 -12 -13 -15 -60 -15 -60
0 -84 16 -32 22 80 9 92 9 92 -7z m-1264 -46 c-18 -22 -26 -39 -22 -53 3 -12
6 -24 6 -28 0 -12 40 -10 40 1 0 6 -4 13 -10 16 -16 10 -11 44 10 65 11 11 20
25 20 30 0 6 16 10 36 10 29 0 43 -7 71 -37 33 -36 34 -41 31 -97 -4 -51 -9
-63 -36 -87 -81 -72 -192 0 -192 125 0 37 5 48 31 71 41 34 49 25 15 -16z
m1117 25 c-1 -6 -7 -59 -14 -120 l-13 -109 -23 74 -22 74 24 23 c36 33 31 39
-12 14 -28 -16 -38 -18 -44 -8 -10 16 8 38 46 54 33 15 61 14 58 -2z m-220
-23 c27 -1 20 -17 -13 -31 -39 -16 -49 -30 -59 -81 l-9 -44 -1 45 c-1 25 -4
62 -7 83 l-7 38 39 -5 c22 -2 47 -5 57 -5z m-257 -9 c12 -8 22 -65 31 -184 l6
-78 -42 0 -41 0 0 52 c0 52 17 117 34 129 18 14 -4 39 -34 39 -22 0 -30 5 -30
18 0 10 3 22 7 25 9 9 55 9 69 -1z m609 -22 c0 -26 -1 -26 -67 -13 -19 4 -28
11 -28 25 0 17 6 19 48 16 43 -3 47 -5 47 -28z m-4700 -30 c15 -16 20 -42 23
-110 l4 -90 -66 0 -67 0 25 33 c34 44 36 111 4 138 -11 11 -24 19 -28 19 -4 0
-6 -26 -6 -59 1 -67 -16 -105 -53 -121 -16 -6 -80 -10 -161 -8 l-135 3 -3 94
c-1 52 -1 100 2 108 4 10 52 13 224 13 208 0 220 -1 237 -20z m504 3 c38 -31
55 -158 25 -187 -10 -11 -33 -16 -67 -16 -29 0 -47 4 -41 8 42 29 60 125 28
156 -22 23 -34 11 -34 -33 0 -57 -19 -100 -51 -116 -20 -11 -61 -15 -144 -15
l-115 0 0 73 c0 39 -3 89 -6 110 l-7 37 196 0 c171 0 197 -2 216 -17z m4233
-115 c13 -78 7 -98 -26 -98 -45 0 -56 10 -56 49 0 33 14 107 26 140 11 31 45
-24 56 -91z m-329 74 c32 -36 45 -169 16 -173 -5 -1 -15 -2 -21 -3 -7 -1 -21
2 -30 6 -23 11 -24 81 -2 123 10 19 11 31 5 33 -16 5 -13 32 2 32 8 0 21 -8
30 -18z m-526 -97 c13 -22 23 -43 23 -47 0 -5 -47 -8 -105 -8 -58 0 -105 3
-105 6 0 4 5 24 11 45 13 41 29 48 114 45 35 -1 42 -5 62 -41z"/>
<path d="M6390 7660 c-11 -8 -7 -9 15 -4 37 8 45 14 19 14 -10 0 -26 -5 -34
-10z"/>
<path d="M6480 7658 c0 -5 9 -8 20 -8 11 0 20 -7 20 -15 0 -8 5 -15 12 -15 9
0 9 -3 0 -12 -14 -14 -16 -88 -2 -88 5 0 11 -47 13 -107 2 -88 3 -78 5 53 1
114 -1 163 -10 172 -9 9 -9 12 0 12 7 0 12 3 12 8 0 4 -16 7 -35 7 -19 0 -35
-3 -35 -7z m57 -80 c-3 -8 -6 -5 -6 6 -1 11 2 17 5 13 3 -3 4 -12 1 -19z"/>
<path d="M6363 7545 c0 -33 2 -45 4 -27 2 18 2 45 0 60 -2 15 -4 0 -4 -33z"/>
<path d="M6384 7515 c0 -49 1 -71 3 -48 2 23 2 64 0 90 -2 26 -3 8 -3 -42z"/>
<path d="M3578 6993 c-2 -5 -1 -69 2 -143 l6 -135 2 143 c2 128 0 158 -10 135z"/>
<path d="M4745 6562 c-11 -4 -21 -15 -23 -26 -3 -17 -1 -17 35 4 21 13 40 25
42 27 7 5 -33 1 -54 -5z"/>
<path d="M5488 6563 c7 -3 16 -2 19 1 4 3 -2 6 -13 5 -11 0 -14 -3 -6 -6z"/>
<path d="M4650 6530 c-13 -8 -12 -10 3 -10 9 0 17 5 17 10 0 12 -1 12 -20 0z"/>
<path d="M4580 6510 c-13 -8 -12 -10 3 -10 9 0 17 5 17 10 0 12 -1 12 -20 0z"/>
<path d="M4690 6509 c0 -5 5 -7 10 -4 6 3 10 8 10 11 0 2 -4 4 -10 4 -5 0 -10
-5 -10 -11z"/>
<path d="M5670 6515 c0 -7 58 -35 72 -35 7 0 2 6 -12 13 -34 18 -60 27 -60 22z"/>
<path d="M4535 6490 c-16 -7 -17 -9 -3 -9 9 -1 20 4 23 9 7 11 7 11 -20 0z"/>
<path d="M5791 6457 c25 -20 79 -46 79 -39 0 5 -15 17 -34 26 -30 14 -57 22
-45 13z"/>
<path d="M5888 6403 c7 -3 16 -2 19 1 4 3 -2 6 -13 5 -11 0 -14 -3 -6 -6z"/>
<path d="M4520 6360 c-8 -5 -12 -12 -9 -15 4 -3 12 1 19 10 14 17 11 19 -10 5z"/>
<path d="M5997 6329 c3 -10 10 -16 16 -12 12 7 1 -14 -21 -39 -18 -22 -52 -24
-52 -3 0 8 -4 15 -10 15 -5 0 -10 -7 -10 -15 0 -8 5 -15 10 -15 6 0 10 -4 10
-10 0 -5 -6 -10 -14 -10 -8 0 -17 -7 -20 -16 -5 -13 -3 -14 7 -6 19 16 102 28
93 14 -4 -7 -21 -12 -37 -12 -17 0 -39 -5 -50 -11 -15 -8 -25 -7 -37 3 -13 10
-13 7 3 -17 10 -16 32 -51 48 -77 17 -27 36 -48 43 -48 16 0 257 61 263 67 15
13 -161 159 -179 148 -5 -3 -8 0 -5 7 3 7 -10 23 -29 35 -32 21 -34 21 -29 2z
m37 -48 c3 -5 -3 -11 -13 -14 -14 -3 -18 -1 -14 9 6 16 19 18 27 5z"/>
<path d="M5898 6323 c7 -3 16 -2 19 1 4 3 -2 6 -13 5 -11 0 -14 -3 -6 -6z"/>
<path d="M5804 6309 c-10 -17 13 -36 27 -22 12 12 4 33 -11 33 -5 0 -12 -5
-16 -11z m26 -9 c0 -5 -2 -10 -4 -10 -3 0 -8 5 -11 10 -3 6 -1 10 4 10 6 0 11
-4 11 -10z"/>
<path d="M5670 6198 c0 -7 9 -19 21 -26 19 -12 19 -11 10 7 -14 26 -31 36 -31
19z"/>
<path d="M5720 6152 c0 -5 16 -27 36 -48 37 -39 30 -25 -13 29 -13 16 -23 24
-23 19z"/>
<path d="M4545 6130 c-3 -5 -2 -10 4 -10 5 0 13 5 16 10 3 6 2 10 -4 10 -5 0
-13 -4 -16 -10z"/>
<path d="M5767 6044 c6 -16 19 -18 27 -5 3 5 -3 11 -13 14 -14 3 -18 1 -14 -9z"/>
<path d="M6255 6000 c-33 -10 -95 -26 -137 -35 -46 -10 -78 -22 -78 -29 0 -7
15 -48 34 -92 71 -163 146 -472 146 -599 0 -23 3 -63 6 -89 l7 -47 91 7 c50 3
138 12 196 18 l105 11 -3 100 c-7 239 -86 474 -237 704 -25 39 -51 71 -58 70
-7 0 -39 -9 -72 -19z"/>
<path d="M3955 6000 c11 -5 27 -9 35 -9 9 0 8 4 -5 9 -11 5 -27 9 -35 9 -9 0
-8 -4 5 -9z"/>
<path d="M4018 5983 c7 -3 16 -2 19 1 4 3 -2 6 -13 5 -11 0 -14 -3 -6 -6z"/>
<path d="M4090 5960 c14 -4 39 -8 55 -8 29 0 29 0 5 8 -14 4 -38 8 -55 8 -29
0 -29 0 -5 -8z"/>
<path d="M4188 5943 c6 -2 18 -2 25 0 6 3 1 5 -13 5 -14 0 -19 -2 -12 -5z"/>
<path d="M4210 5915 c0 -5 5 -17 10 -25 5 -8 10 -10 10 -5 0 6 -5 17 -10 25
-5 8 -10 11 -10 5z"/>
<path d="M5710 5890 c-69 -10 -188 -21 -265 -25 -146 -6 -226 -12 -230 -17 -1
-2 1 -27 5 -56 3 -29 3 -55 -2 -58 -4 -3 -8 -150 -8 -326 l0 -321 413 6 c226
4 422 10 435 13 20 6 22 12 22 78 -1 194 -70 472 -168 674 -29 60 -15 58 -202
32z m-130 -115 c27 -33 -17 -74 -48 -43 -16 16 -15 23 4 42 19 20 28 20 44 1z
m-115 -25 c0 -20 -5 -25 -25 -25 -20 0 -26 6 -28 28 -3 26 -1 28 25 25 22 -2
28 -8 28 -28z m353 -202 c3 -27 2 -27 -60 -30 -61 -3 -63 -4 -68 -33 -5 -28
-9 -30 -59 -37 -29 -3 -57 -12 -61 -19 -5 -7 -11 -43 -15 -81 l-7 -68 -54 0
c-47 0 -54 -3 -54 -19 0 -41 -11 -51 -55 -51 -47 0 -49 1 -59 43 -5 22 -1 32
19 51 24 22 25 29 25 125 l0 101 85 0 c78 0 85 2 85 20 0 18 8 20 113 23 169
5 162 6 165 -25z"/>
<path d="M3860 5885 c-17 -20 -92 -177 -117 -245 -50 -134 -83 -302 -83 -422
0 -58 3 -68 18 -69 9 0 71 -6 137 -13 119 -13 149 -9 127 17 -16 19 -48 165
-61 277 -15 125 -21 366 -11 421 9 50 8 56 -10 34z m-13 -67 c-3 -8 -6 -5 -6
6 -1 11 2 17 5 13 3 -3 4 -12 1 -19z"/>
<path d="M4420 5890 c0 -5 8 -10 18 -10 15 0 15 -2 2 -11 -11 -8 -9 -9 10 -3
38 10 61 26 28 18 -18 -4 -28 -2 -28 5 0 6 -7 11 -15 11 -8 0 -15 -4 -15 -10z"/>
<path d="M4585 5871 l-30 -7 35 -5 c19 -3 67 -2 105 1 l70 7 -55 2 c-30 1 -64
3 -75 5 -11 2 -33 1 -50 -3z"/>
<path d="M4802 5855 c3 -3 41 -8 84 -11 56 -4 75 -2 64 5 -15 11 -158 16 -148
6z"/>
<path d="M4970 5850 c0 -5 12 -10 28 -10 21 0 24 2 12 10 -20 13 -40 13 -40 0z"/>
<path d="M4480 5838 c0 -4 14 -8 30 -8 17 0 30 2 30 4 0 2 -13 6 -30 8 -16 3
-30 1 -30 -4z"/>
<path d="M4780 5820 c0 -19 24 -28 46 -18 17 8 27 8 39 -2 18 -15 31 -7 18 12
-8 13 -103 21 -103 8z"/>
<path d="M5052 5800 c0 -14 2 -19 5 -12 2 6 2 18 0 25 -3 6 -5 1 -5 -13z"/>
<path d="M4826 5707 c3 -10 9 -15 12 -12 3 3 0 11 -7 18 -10 9 -11 8 -5 -6z"/>
<path d="M4858 5713 c7 -3 16 -2 19 1 4 3 -2 6 -13 5 -11 0 -14 -3 -6 -6z"/>
<path d="M4124 5689 c-3 -6 -1 -16 5 -22 8 -8 11 -5 11 11 0 24 -5 28 -16 11z"/>
<path d="M4860 5691 c0 -5 -8 -11 -17 -13 -12 -2 -14 -6 -7 -10 6 -4 19 1 29
12 10 12 13 20 7 20 -7 0 -12 -4 -12 -9z"/>
<path d="M4700 5680 c-9 -6 -10 -10 -3 -10 6 0 15 5 18 10 8 12 4 12 -15 0z"/>
<path d="M5025 5649 c-55 -35 -78 -42 -99 -29 -16 10 -18 9 -14 -7 4 -16 -8
-29 -53 -59 -32 -21 -59 -43 -59 -47 0 -5 -5 -5 -12 -1 -24 15 48 -69 131
-153 37 -39 42 -49 37 -75 -3 -17 -6 -34 -6 -39 0 -5 -25 -9 -55 -9 -52 0 -55
1 -55 24 0 25 0 25 -127 29 -150 6 -153 6 -153 24 0 8 -4 11 -10 8 -5 -3 -10
1 -10 9 0 16 -10 20 -40 17 -12 -1 -12 0 -2 7 26 17 -18 36 -87 38 -36 1 -72
2 -78 3 -22 2 -14 19 10 24 12 2 5 3 -17 2 -21 -2 -43 -8 -48 -13 -5 -5 -12
-35 -15 -66 -3 -31 -10 -56 -14 -56 -5 0 -10 -8 -10 -17 -1 -10 -5 -2 -10 17
-7 31 -7 28 -6 -20 1 -30 -3 -72 -7 -94 -10 -43 0 -56 39 -48 23 4 23 6 18 77
-4 49 -2 77 6 86 6 8 17 22 24 31 15 21 48 27 54 11 3 -7 -4 -16 -14 -20 -36
-14 -43 -30 -43 -107 0 -63 3 -75 18 -80 19 -5 185 -12 530 -22 l222 -7 0 292
c0 160 -3 291 -7 290 -5 0 -21 -9 -38 -20z m-577 -316 c-10 -2 -26 -2 -35 0
-10 3 -2 5 17 5 19 0 27 -2 18 -5z m37 -43 c-3 -5 -16 -10 -28 -9 -20 1 -20 2
3 9 14 4 26 8 28 9 2 1 0 -3 -3 -9z"/>
<path d="M4700 5650 c-9 -6 -10 -10 -3 -10 6 0 15 5 18 10 8 12 4 12 -15 0z"/>
<path d="M4030 5620 c0 -11 7 -20 15 -20 17 0 18 2 9 24 -9 23 -24 20 -24 -4z"/>
<path d="M4100 5624 c0 -14 3 -14 15 -4 8 7 15 14 15 16 0 2 -7 4 -15 4 -8 0
-15 -7 -15 -16z"/>
<path d="M4283 5612 c-6 -15 -16 -49 -22 -77 -6 -27 -13 -60 -17 -72 -5 -17
-2 -23 9 -23 9 0 15 10 15 26 0 15 4 29 9 33 6 3 13 22 17 41 4 26 3 30 -3 15
-14 -30 -14 4 0 44 14 40 8 50 -8 13z"/>
<path d="M4788 5614 c-4 -15 0 -20 16 -22 11 0 16 2 10 6 -6 4 -13 14 -16 22
-3 11 -6 9 -10 -6z"/>
<path d="M4106 5588 c-11 -34 -17 -72 -11 -66 8 8 25 78 19 78 -3 0 -6 -6 -8
-12z"/>
<path d="M4516 5581 c22 -21 27 -21 18 3 -3 9 -13 16 -22 16 -13 0 -12 -3 4
-19z"/>
<path d="M4737 5554 c3 -8 11 -14 18 -14 7 0 15 6 18 14 4 9 -2 14 -18 14 -16
0 -22 -5 -18 -14z"/>
<path d="M4082 5480 c0 -19 2 -27 5 -17 2 9 2 25 0 35 -3 9 -5 1 -5 -18z"/>
<path d="M4477 5504 c-3 -3 -3 -12 0 -20 3 -8 -1 -14 -10 -14 -9 0 -19 -4 -22
-10 -3 -5 -1 -10 4 -10 14 0 51 37 51 50 0 11 -13 13 -23 4z"/>
<path d="M4430 5490 c0 -5 -7 -10 -17 -10 -9 0 -14 -3 -10 -6 8 -8 47 5 47 17
0 5 -4 9 -10 9 -5 0 -10 -4 -10 -10z"/>
<path d="M3660 5000 c0 -34 25 -168 47 -249 49 -187 142 -377 250 -512 45 -55
50 -58 81 -53 19 3 81 11 139 19 58 8 107 16 109 18 3 2 -18 50 -46 106 -29
56 -67 149 -85 206 -34 103 -84 322 -92 401 l-5 41 -161 12 c-89 6 -179 14
-199 16 -23 3 -38 1 -38 -5z m357 -55 c-15 -16 -19 -13 -11 9 3 9 10 13 15 10
5 -3 3 -11 -4 -19z"/>
<path d="M6470 4994 c-74 -7 -160 -13 -190 -13 l-56 -1 -12 -114 c-19 -181
-123 -501 -199 -613 -12 -18 -20 -33 -18 -33 2 0 67 -9 144 -20 l141 -21 30
33 c89 96 210 316 254 458 47 155 74 331 51 335 -5 1 -71 -4 -145 -11z"/>
<path d="M4223 4889 c12 -167 67 -356 157 -534 l56 -110 39 1 c58 0 481 24
543 30 l52 5 0 338 0 338 -397 7 c-219 3 -411 9 -427 13 l-29 6 6 -94z m502
-130 c4 -5 4 -21 1 -35 -5 -19 -13 -24 -36 -24 -26 0 -30 4 -30 28 0 16 3 32
7 35 10 11 51 8 58 -4z m140 -24 c0 -27 -3 -30 -30 -30 -27 0 -30 4 -33 33 -3
32 -2 33 30 30 29 -3 33 -6 33 -33z m13 -178 c2 -10 1 -29 -2 -43 -5 -18 -13
-24 -35 -24 -30 0 -41 14 -41 54 0 31 9 37 45 34 19 -2 31 -9 33 -21z"/>
<path d="M5865 4963 c-33 -1 -193 -4 -355 -5 l-295 -3 -3 -334 c-1 -233 1
-337 9 -341 6 -4 45 -8 87 -9 100 -2 411 -19 484 -27 56 -6 57 -5 78 28 42 67
119 235 149 327 30 91 57 227 63 321 l3 45 -80 1 c-44 0 -107 -1 -140 -3z
m-385 -243 c0 -16 -4 -32 -10 -35 -5 -3 -10 -16 -10 -28 0 -16 -5 -11 -20 18
-25 48 -25 72 -2 77 29 7 42 -3 42 -32z m135 5 c0 -33 -20 -43 -48 -23 -27 20
-12 60 22 56 22 -2 26 -8 26 -33z m-145 -161 c0 -24 -5 -34 -15 -34 -22 0 -30
27 -16 56 15 33 31 22 31 -22z"/>
<path d="M5214 4141 c-2 -2 -4 -101 -4 -218 l0 -214 23 7 c68 21 250 132 347
212 58 47 193 182 188 187 -2 2 -109 8 -238 14 -129 7 -252 13 -273 14 -21 2
-40 1 -43 -2z"/>
<path d="M4695 4127 c-88 -5 -162 -11 -164 -13 -8 -8 76 -99 147 -160 104 -89
282 -201 375 -237 16 -6 17 8 17 208 l0 215 -107 -2 c-60 -1 -180 -6 -268 -11z"/>
<path d="M4245 4084 c-44 -7 -90 -16 -102 -19 l-22 -5 23 -23 c111 -111 319
-237 496 -302 96 -35 211 -67 186 -52 -191 118 -343 252 -435 385 -25 36 -27
36 -146 16z"/>
<path d="M5880 4048 c-109 -134 -274 -281 -390 -347 -30 -17 -52 -31 -48 -31
4 0 67 20 141 44 143 47 285 113 382 179 75 51 215 160 215 168 0 4 -44 12
-97 18 -54 7 -112 14 -129 17 -28 5 -35 0 -74 -48z"/>
<path d="M2270 6149 c0 -5 5 -7 10 -4 6 4 10 -5 10 -19 0 -16 6 -26 15 -26 18
0 18 1 5 34 -9 25 -40 37 -40 15z"/>
<path d="M2320 6141 c0 -6 5 -11 10 -11 6 0 10 -7 10 -15 0 -22 27 -18 33 5 3
13 0 20 -8 20 -7 0 -20 3 -29 6 -9 3 -16 1 -16 -5z"/>
<path d="M2226 6132 c-2 -4 -1 -14 4 -21 10 -17 31 -5 23 14 -6 16 -19 20 -27
7z"/>
<path d="M2390 6101 c0 -24 3 -28 20 -24 13 3 20 14 20 29 0 17 -6 24 -20 24
-15 0 -20 -7 -20 -29z"/>
<path d="M2450 6089 l1 -34 12 27 c8 20 16 25 26 19 9 -6 10 -11 2 -15 -6 -4
-11 -14 -11 -23 0 -14 3 -14 20 2 22 20 27 45 8 45 -7 0 -23 3 -35 6 -21 6
-23 3 -23 -27z"/>
<path d="M2540 6091 c0 -6 9 -11 19 -11 36 0 51 -12 51 -40 0 -22 5 -29 28
-33 35 -7 38 -2 25 33 -9 24 -9 30 2 30 8 0 20 -9 28 -20 8 -11 17 -17 20 -13
4 3 7 1 7 -6 0 -8 -7 -10 -20 -6 -14 5 -20 2 -20 -9 0 -15 24 -21 60 -16 16 2
32 21 24 29 -3 3 -9 -1 -14 -9 -8 -13 -10 -12 -10 3 0 9 8 17 18 18 25 1 -54
29 -113 40 -27 5 -62 12 -77 15 -18 4 -28 2 -28 -5z m100 -43 c0 -19 -2 -20
-10 -8 -13 19 -13 30 0 30 6 0 10 -10 10 -22z"/>
<path d="M2530 6040 c0 -15 7 -20 26 -20 20 0 25 4 20 16 -3 9 -6 18 -6 20 0
2 -9 4 -20 4 -13 0 -20 -7 -20 -20z"/>
<path d="M2553 5933 c9 -2 23 -2 30 0 6 3 -1 5 -18 5 -16 0 -22 -2 -12 -5z"/>
<path d="M2867 4433 c-8 -15 0 -133 9 -134 11 -1 15 129 4 136 -5 3 -10 2 -13
-2z"/>
<path d="M2760 4365 c0 -37 4 -65 10 -65 6 0 10 28 10 65 0 37 -4 65 -10 65
-6 0 -10 -28 -10 -65z"/>
<path d="M2814 4368 c6 -83 22 -85 23 -3 0 49 -3 65 -13 65 -11 0 -13 -14 -10
-62z"/>
<path d="M2907 4253 c-4 -3 -7 -35 -7 -70 0 -56 2 -63 19 -63 23 0 27 15 23
86 -4 50 -16 67 -35 47z"/>
<path d="M2580 4190 c0 -33 4 -60 10 -60 6 0 10 27 10 60 0 33 -4 60 -10 60
-6 0 -10 -27 -10 -60z"/>
<path d="M2620 4190 c0 -47 3 -60 15 -60 12 0 15 13 15 60 0 47 -3 60 -15 60
-12 0 -15 -13 -15 -60z"/>
<path d="M2690 4190 c0 -33 4 -60 10 -60 6 0 10 27 10 60 0 33 -4 60 -10 60
-6 0 -10 -27 -10 -60z"/>
<path d="M2757 4243 c-11 -10 -8 -113 3 -113 6 0 10 27 10 60 0 61 -1 65 -13
53z"/>
<path d="M2800 4221 c0 -43 11 -91 21 -91 5 0 9 27 9 60 0 47 -3 60 -15 60
-10 0 -15 -10 -15 -29z"/>
<path d="M2860 4185 c0 -37 4 -65 10 -65 6 0 10 28 10 65 0 37 -4 65 -10 65
-6 0 -10 -28 -10 -65z"/>
<path d="M2912 4088 c-7 -7 -12 -41 -12 -80 0 -55 4 -73 20 -90 l20 -22 1 35
c3 67 -3 154 -10 162 -4 4 -12 2 -19 -5z"/>
<path d="M2580 4005 c0 -51 3 -76 10 -69 14 14 15 123 2 136 -9 9 -12 -7 -12
-67z"/>
<path d="M2632 4071 c-17 -11 -12 -133 6 -139 9 -3 12 16 12 72 0 42 -1 76 -2
76 -2 0 -9 -4 -16 -9z"/>
<path d="M2690 4000 c0 -47 4 -80 10 -80 6 0 10 33 10 80 0 47 -4 80 -10 80
-6 0 -10 -33 -10 -80z"/>
<path d="M2800 4016 c0 -65 7 -99 19 -92 10 6 1 156 -10 156 -5 0 -9 -29 -9
-64z"/>
<path d="M2849 4076 c-2 -2 -3 -38 -1 -80 3 -61 6 -74 18 -69 12 4 14 21 12
76 -3 61 -13 88 -29 73z"/>
<path d="M2750 4001 c0 -57 3 -71 15 -71 13 0 15 12 13 67 -2 42 -8 68 -15 71
-10 3 -13 -15 -13 -67z"/>
<path d="M6799 3512 c-42 -37 -46 -82 -13 -139 28 -48 49 -57 120 -50 86 9
126 85 90 171 -8 19 -19 36 -24 40 -6 3 -1 -13 10 -35 22 -46 19 -89 -8 -127
-22 -32 -35 -27 -22 8 15 45 1 99 -34 132 -39 37 -78 37 -119 0z m126 -42 c28
-56 26 -91 -8 -115 -55 -39 -124 -2 -134 72 -7 51 29 93 81 93 33 0 38 -4 61
-50z"/>
<path d="M6840 3470 c0 -13 48 -36 56 -27 4 4 1 13 -6 22 -14 17 -50 20 -50 5z"/>
<path d="M6815 3459 c-4 -6 -5 -12 -2 -15 2 -3 7 2 10 11 7 17 1 20 -8 4z"/>
<path d="M6894 3402 c-10 -15 -13 -15 -28 -3 -18 15 -32 9 -21 -8 10 -17 52
-13 59 5 9 23 3 27 -10 6z"/>
<path d="M6540 3426 c0 -2 7 -7 16 -10 8 -3 12 -2 9 4 -6 10 -25 14 -25 6z"/>
<path d="M6500 3330 c0 -5 9 -10 21 -10 11 0 17 5 14 10 -3 6 -13 10 -21 10
-8 0 -14 -4 -14 -10z"/>
<path d="M6500 3290 c-18 -11 18 -22 37 -11 13 7 12 9 -5 13 -11 3 -25 2 -32
-2z"/>
<path d="M3422 3275 c0 -5 6 -26 13 -45 7 -19 14 -28 14 -20 0 8 -6 29 -14 45
-7 17 -13 26 -13 20z"/>
<path d="M6706 3215 c-8 -21 0 -35 20 -35 16 0 18 -30 5 -77 -7 -26 -7 -31 5
-26 16 6 17 10 14 73 -2 51 -32 96 -44 65z"/>
<path d="M6661 3166 c-9 -11 -6 -15 19 -18 24 -4 30 -1 25 9 -3 8 -5 17 -5 19
0 10 -29 3 -39 -10z"/>
<path d="M6392 3108 c-13 -13 -16 -38 -4 -38 4 0 21 11 37 25 l30 24 -25 1
c-15 0 -31 -5 -38 -12z"/>
<path d="M6462 3072 c4 -12 2 -25 -3 -28 -5 -3 -6 -10 -3 -16 13 -20 -18 -58
-48 -58 -15 0 -28 5 -28 10 0 6 -7 10 -16 10 -14 0 -14 -3 -4 -15 18 -21 83
-19 103 3 20 21 23 97 5 108 -8 5 -9 0 -6 -14z"/>
<path d="M6390 3030 c0 -5 9 -10 20 -10 11 0 20 5 20 10 0 6 -9 10 -20 10 -11
0 -20 -4 -20 -10z"/>
<path d="M6621 2943 c0 -5 4 -17 9 -28 8 -18 9 -17 9 8 1 15 -3 27 -9 27 -5 0
-10 -3 -9 -7z"/>
<path d="M6928 9003 c-3 -223 -6 -262 -21 -288 -18 -32 -25 -83 -7 -55 5 8 10
25 10 38 0 22 20 32 20 10 0 -9 4 -8 11 2 8 11 9 7 4 -17 -4 -21 -3 -33 4 -33
6 0 11 -4 11 -9 0 -5 -17 -11 -39 -15 -33 -5 -39 -10 -45 -37 -3 -17 -6 -42
-6 -55 0 -13 -8 -28 -19 -33 -14 -8 -20 -27 -26 -78 -5 -48 -4 -68 5 -71 7 -3
5 -11 -7 -24 -13 -14 -19 -41 -21 -94 -3 -53 -8 -74 -17 -74 -15 0 -22 -39
-28 -147 l-3 -63 193 0 193 0 -10 26 c-6 14 -10 59 -10 100 0 57 -4 76 -15 80
-9 4 -15 20 -15 43 -1 20 -5 56 -11 81 -6 25 -15 83 -20 130 -7 54 -16 89 -25
97 -17 13 -43 110 -44 162 0 19 -7 42 -15 51 -12 13 -15 61 -15 273 -1 211 -4
257 -15 257 -11 0 -14 -47 -17 -257z m-53 -633 c-3 -5 -12 -10 -18 -10 -7 0
-6 4 3 10 19 12 23 12 15 0z"/>
<path d="M4178 9224 c-5 -4 -8 -80 -8 -169 0 -119 -4 -174 -15 -205 -8 -23
-15 -58 -15 -76 0 -23 -6 -37 -20 -44 -13 -7 -20 -21 -20 -39 0 -15 -9 -77
-20 -137 -24 -133 -26 -190 -22 -559 3 -255 5 -286 17 -260 8 17 17 51 21 77
4 26 13 53 20 59 11 9 13 62 10 273 -2 143 0 216 3 161 8 -107 14 -111 11 -7
-1 34 2 62 7 62 4 0 8 -107 8 -239 0 -234 0 -238 20 -231 19 7 20 16 20 231 0
123 -4 259 -8 302 -4 49 -3 77 3 77 6 0 11 -12 11 -27 2 -22 3 -19 9 12 4 22
8 -98 9 -267 0 -170 3 -308 6 -308 3 0 32 7 65 17 l60 16 0 61 c1 34 3 150 6
260 4 120 2 206 -3 220 -28 60 -45 94 -64 123 -11 17 -23 51 -27 75 -6 34 -12
44 -30 46 -19 3 -21 8 -16 40 3 21 0 50 -7 67 -9 19 -15 96 -19 213 -3 101 -8
180 -12 176z m22 -695 c0 -11 -4 -17 -10 -14 -5 3 -10 13 -10 21 0 8 5 14 10
14 6 0 10 -9 10 -21z m57 -201 c-2 -24 -4 -7 -4 37 0 44 2 63 4 43 2 -21 2
-57 0 -80z"/>
<path d="M5979 8968 c0 -138 -11 -284 -24 -339 -6 -24 -4 -28 25 -34 42 -9 54
4 39 41 -6 16 -13 125 -16 252 -3 122 -10 222 -15 222 -4 0 -8 -64 -9 -142z"/>
<path d="M4403 8978 c3 -9 2 -19 -1 -24 -4 -5 -5 -8 -3 -7 2 2 11 -3 20 -9 13
-10 14 -10 4 1 -6 7 -9 19 -7 26 3 7 0 16 -7 21 -8 5 -11 2 -6 -8z"/>
<path d="M7781 8888 c-2 -38 -43 -126 -72 -156 -17 -17 -54 -40 -82 -50 l-52
-20 38 -10 c61 -17 106 -58 138 -126 16 -33 29 -68 30 -76 0 -8 6 4 13 27 28
88 77 144 151 172 l48 18 -35 7 c-69 13 -145 101 -167 193 -5 21 -9 30 -10 21z"/>
<path d="M6651 8868 c-1 -9 -13 -26 -27 -37 -25 -20 -25 -41 -1 -41 7 0 6 4
-3 10 -13 9 -13 10 0 11 8 1 19 1 24 0 5 -1 6 5 3 13 -4 10 -1 13 9 9 19 -7
18 -12 -8 -33 -19 -15 -20 -20 -9 -34 12 -14 15 -13 33 9 11 14 27 25 36 25
12 1 9 6 -11 22 -16 11 -33 30 -37 42 -7 16 -9 17 -9 4z"/>
<path d="M4396 8817 c3 -10 9 -15 12 -12 3 3 0 11 -7 18 -10 9 -11 8 -5 -6z"/>
<path d="M1831 8801 c-34 -34 -36 -65 -7 -124 23 -47 50 -79 163 -198 l35 -37
-61 -41 c-33 -23 -68 -44 -76 -47 -9 -4 -38 10 -70 32 -48 32 -59 36 -83 28
-39 -14 -42 -57 -6 -95 27 -28 27 -29 8 -44 -62 -50 -60 -50 -106 -16 -23 17
-54 31 -70 31 -50 0 -62 -66 -17 -91 13 -7 18 -16 14 -29 -5 -15 5 -22 52 -40
80 -31 141 -37 149 -17 4 12 14 15 35 10 16 -3 29 -1 29 4 0 18 85 36 108 24
28 -15 42 -14 42 4 0 8 6 15 13 16 61 4 182 20 225 30 61 14 35 27 232 -123
l101 -76 -66 -43 c-66 -44 -74 -56 -53 -77 17 -17 34 -15 148 17 77 23 108 28
127 20 13 -5 45 -9 70 -9 40 0 45 2 40 20 -4 15 1 21 16 24 89 19 219 51 230
58 9 6 6 14 -12 28 -21 18 -38 20 -155 20 -91 0 -137 4 -148 13 -13 10 -88
117 -140 198 l-16 26 126 36 c153 43 292 77 349 84 29 3 43 10 46 24 5 19 10
20 95 24 13 0 26 6 30 12 4 7 66 24 137 38 72 15 134 30 138 34 4 5 -4 16 -20
26 -27 18 -34 18 -238 -3 -115 -12 -265 -27 -332 -34 l-122 -11 -45 41 c-55
51 -95 56 -116 16 -11 -19 -11 -30 -3 -43 10 -16 8 -20 -19 -25 -17 -3 -53 -6
-81 -6 -44 0 -55 4 -93 40 -24 22 -51 40 -59 40 -30 0 -55 -20 -55 -45 0 -29
-10 -32 -31 -7 -8 9 -51 49 -95 88 -176 159 -215 184 -295 192 -38 3 -51 0
-68 -17z m96 -19 c8 -5 -6 -12 -37 -18 -39 -8 -50 -8 -50 2 0 21 61 33 87 16z"/>
<path d="M6921 8674 c0 -11 3 -14 6 -6 3 7 2 16 -1 19 -3 4 -6 -2 -5 -13z"/>
<path d="M5932 8548 c3 -32 4 -33 53 -33 49 0 50 1 53 33 l3 32 -56 0 -56 0 3
-32z"/>
<path d="M5917 8493 c-4 -3 -7 -21 -7 -40 l0 -33 75 0 75 0 0 40 0 40 -68 0
c-38 0 -72 -3 -75 -7z"/>
<path d="M5883 8403 c-30 -4 -33 -7 -33 -39 l0 -34 145 0 145 0 0 34 c0 33 -1
33 -52 40 -55 6 -149 6 -205 -1z m4 -55 c-3 -8 -6 -5 -6 6 -1 11 2 17 5 13 3
-3 4 -12 1 -19z"/>
<path d="M5840 8141 l0 -158 59 -22 c73 -26 81 -26 82 2 1 18 3 17 8 -7 5 -22
16 -32 56 -47 28 -10 60 -19 72 -19 12 0 27 -8 33 -17 7 -13 9 45 8 205 l-2
222 -158 0 -158 0 0 -159z m223 112 c-29 -2 -78 -2 -110 0 -32 2 -8 3 52 3 61
0 87 -1 58 -3z m-135 -85 c-6 -18 -28 -21 -28 -4 0 9 7 16 16 16 9 0 14 -5 12
-12z m62 -9 c0 -5 -4 -9 -10 -9 -5 0 -10 7 -10 16 0 8 5 12 10 9 6 -3 10 -10
10 -16z m60 6 c0 -9 -6 -12 -15 -9 -8 4 -12 10 -9 15 8 14 24 10 24 -6z m60
-5 c0 -5 -7 -10 -15 -10 -8 0 -15 5 -15 10 0 6 7 10 15 10 8 0 15 -4 15 -10z
m-25 -73 c17 -2 3 -5 -30 -5 -55 -2 -58 -1 -35 11 14 7 27 10 30 6 3 -4 19 -9
35 -12z m-98 -3 c2 -5 -15 -8 -37 -6 -22 2 -38 7 -36 11 6 9 70 5 73 -5z m63
-54 c0 -11 -4 -20 -9 -20 -5 0 -7 9 -4 20 3 11 7 20 9 20 2 0 4 -9 4 -20z
m-107 -11 c7 0 3 -4 -8 -8 -22 -9 -35 -5 -35 11 0 5 7 7 16 4 9 -3 21 -6 27
-7z m167 1 c0 -5 -5 -10 -11 -10 -5 0 -7 5 -4 10 3 6 8 10 11 10 2 0 4 -4 4
-10z m-102 -7 c-10 -2 -26 -2 -35 0 -10 3 -2 5 17 5 19 0 27 -2 18 -5z m47
-63 c3 -5 1 -10 -4 -10 -6 0 -11 5 -11 10 0 6 2 10 4 10 3 0 8 -4 11 -10z m52
-6 c-3 -3 -12 -4 -19 -1 -8 3 -5 6 6 6 11 1 17 -2 13 -5z"/>
<path d="M3472 8249 c-1 -20 -5 -52 -8 -70 -5 -26 -4 -31 5 -23 8 7 11 33 8
70 -2 33 -4 43 -5 23z"/>
<path d="M8795 8254 c-124 -38 -393 -141 -409 -155 -6 -6 -5 -9 2 -9 7 0 12
-4 12 -8 0 -4 -45 -1 -100 7 -99 15 -100 16 -100 44 0 15 -6 30 -14 33 -7 3
-54 -4 -104 -16 l-90 -21 -218 46 c-169 36 -253 49 -369 55 -140 9 -166 8
-153 -6 6 -5 358 -129 421 -147 34 -10 51 -27 27 -27 -5 0 -10 -4 -10 -8 0 -8
69 -27 138 -39 27 -4 33 -9 29 -24 -4 -15 0 -19 21 -19 15 -1 41 -7 57 -14 28
-12 29 -13 10 -23 -51 -27 -299 -123 -317 -123 -12 0 -70 23 -129 50 -59 28
-122 50 -140 50 -36 0 -109 -20 -109 -30 0 -4 12 -17 26 -31 34 -31 112 -132
116 -149 2 -8 -14 -19 -37 -27 l-40 -13 58 5 c55 5 63 1 58 -28 -5 -30 77 -12
123 28 22 18 41 25 73 25 64 0 180 26 296 67 87 30 210 62 241 63 4 0 5 -8 1
-17 -4 -10 -9 -31 -11 -47 -2 -16 -11 -38 -21 -48 -11 -13 -12 -18 -3 -18 7 0
10 -8 7 -20 -13 -49 65 -5 157 89 l76 78 62 5 c35 3 83 14 107 23 42 18 43 19
38 57 -3 22 -8 42 -11 45 -3 4 -31 2 -60 -4 -65 -11 -64 1 2 21 95 30 328 119
387 148 62 31 125 83 125 104 0 33 -149 52 -225 28z"/>
<path d="M3991 7898 c-1 -76 2 -138 7 -138 4 0 7 -18 7 -40 1 -22 -3 -40 -7
-40 -4 0 -8 -9 -8 -21 0 -11 4 -18 9 -15 5 3 7 -16 5 -42 -3 -36 -2 -41 5 -22
13 37 13 340 1 340 -7 0 -9 13 -5 33 4 17 2 43 -4 57 -7 19 -10 -10 -10 -112z
m16 -50 c-3 -7 -5 -2 -5 12 0 14 2 19 5 13 2 -7 2 -19 0 -25z"/>
<path d="M1834 7852 c-10 -18 -25 -32 -34 -32 -8 0 0 -9 18 -20 17 -11 32 -25
33 -32 0 -7 4 -2 10 10 5 13 18 26 29 29 21 6 21 6 0 20 -12 8 -25 24 -29 36
-7 19 -9 19 -27 -11z"/>
<path d="M3527 7860 c3 -11 7 -20 9 -20 2 0 4 9 4 20 0 11 -4 20 -9 20 -5 0
-7 -9 -4 -20z"/>
<path d="M2698 7463 c1 -137 3 -288 5 -338 2 -49 4 57 5 238 1 222 5 327 13
327 5 0 7 -4 4 -10 -3 -5 3 -10 13 -10 11 0 25 -7 33 -16 11 -13 9 -14 -17 -8
-28 6 -28 6 -9 -9 11 -9 26 -17 33 -17 21 0 13 -21 -23 -57 -31 -31 -35 -41
-33 -81 l1 -47 4 43 c3 34 8 42 24 42 17 0 19 -7 19 -80 0 -47 -4 -80 -10 -80
-6 0 -10 -33 -10 -80 0 -44 4 -80 9 -80 5 0 12 -36 16 -80 7 -82 24 -109 26
-42 1 20 5 51 9 67 6 23 8 15 9 -37 1 -47 5 -68 14 -68 9 0 12 69 14 304 l2
304 -67 27 c-37 15 -71 29 -77 31 -7 3 -9 -81 -7 -243z m118 63 c-3 -14 -7
-93 -7 -175 -2 -120 -5 -151 -15 -151 -8 0 -14 8 -14 19 0 10 -3 46 -6 80 -6
52 -5 61 10 61 13 0 16 12 16 73 0 70 7 117 17 117 3 0 2 -11 -1 -24z m11
-288 c-2 -24 -4 -5 -4 42 0 47 2 66 4 43 2 -24 2 -62 0 -85z"/>
<path d="M2002 7565 l-112 -45 -29 21 c-41 30 -65 19 -58 -26 6 -35 6 -35 -48
-51 l-54 -15 -53 39 c-105 79 -169 100 -202 66 -9 -8 -16 -19 -16 -24 0 -16
62 -80 122 -126 l58 -45 0 -95 c0 -93 -6 -108 -30 -79 -17 21 -47 19 -60 -4
-12 -24 6 -45 56 -66 34 -14 34 -15 34 -78 0 -87 9 -124 30 -130 15 -4 23 14
53 112 20 64 43 142 52 174 8 31 17 57 19 57 2 0 43 -24 92 -52 49 -29 103
-60 119 -68 19 -10 32 -26 38 -50 7 -32 30 -60 48 -60 4 0 10 11 13 25 4 14
13 25 20 25 9 0 12 7 10 18 -4 12 9 27 40 49 43 31 57 55 37 67 -4 3 -39 -3
-76 -14 l-68 -19 -98 82 c-54 45 -98 87 -98 92 0 6 66 60 147 121 133 100 176
144 140 144 -7 0 -64 -21 -126 -45z"/>
<path d="M8202 7335 c0 -16 2 -22 5 -12 2 9 2 23 0 30 -3 6 -5 -1 -5 -18z"/>
<path d="M8120 7250 c-13 -9 -13 -10 0 -10 8 0 22 5 30 10 13 9 13 10 0 10 -8
0 -22 -5 -30 -10z"/>
<path d="M7728 7243 c7 -3 16 -2 19 1 4 3 -2 6 -13 5 -11 0 -14 -3 -6 -6z"/>
<path d="M8278 7243 c7 -3 16 -2 19 1 4 3 -2 6 -13 5 -11 0 -14 -3 -6 -6z"/>
<path d="M8190 7180 c0 -5 5 -10 11 -10 5 0 7 5 4 10 -3 6 -8 10 -11 10 -2 0
-4 -4 -4 -10z"/>
<path d="M8380 6986 c0 -7 -7 -19 -15 -26 -13 -10 -12 -15 8 -30 26 -22 24
-25 -27 -33 -34 -5 -38 -4 -33 13 7 26 -10 26 -18 0 -3 -11 -14 -20 -24 -20
-24 0 -37 -17 -45 -57 -8 -35 -26 -46 -62 -37 -20 5 -24 2 -24 -16 0 -17 4
-21 18 -15 38 15 48 9 80 -48 28 -50 32 -53 71 -54 51 -2 61 -8 61 -36 0 -12
5 -29 10 -37 7 -11 10 -7 10 18 0 28 5 35 38 48 72 31 87 42 113 80 l27 39
-16 63 c-14 51 -20 62 -37 62 -12 0 -26 -5 -33 -12 -8 -8 -15 -8 -28 3 -9 8
-25 13 -36 11 -21 -4 -24 18 -5 37 10 11 10 14 0 18 -7 3 -13 13 -13 24 0 10
-4 19 -10 19 -5 0 -10 -6 -10 -14z m51 -138 c23 -26 24 -47 3 -76 -34 -49
-114 -9 -114 58 0 35 6 40 53 40 28 0 45 -6 58 -22z m19 -153 c0 -10 -10 -15
-29 -15 -23 0 -30 5 -33 25 -3 13 -3 27 0 29 9 9 62 -24 62 -39z m-80 5 c10
-18 8 -20 -25 -20 -22 0 -35 5 -35 13 0 33 44 37 60 7z"/>
<path d="M8367 6843 c-13 -12 -7 -54 9 -60 8 -3 22 1 31 9 12 12 13 20 4 37
-12 21 -31 27 -44 14z"/>
<path d="M2811 6928 c1 -55 5 -50 11 15 2 20 0 37 -4 37 -4 0 -7 -24 -7 -52z"/>
<path d="M1898 6873 c7 -3 16 -2 19 1 4 3 -2 6 -13 5 -11 0 -14 -3 -6 -6z"/>
<path d="M2038 6873 c7 -3 16 -2 19 1 4 3 -2 6 -13 5 -11 0 -14 -3 -6 -6z"/>
<path d="M2690 6871 c0 -5 7 -11 15 -15 8 -3 15 -1 15 3 0 5 -7 11 -15 15 -8
3 -15 1 -15 -3z"/>
<path d="M8597 6795 c-18 -13 -18 -14 2 -24 28 -15 31 -14 31 14 0 28 -7 30
-33 10z"/>
<path d="M2806 6722 c7 -4 14 -16 17 -27 4 -15 5 -14 6 8 1 20 -4 27 -16 27
-12 0 -14 -3 -7 -8z"/>
<path d="M2750 6707 c0 -21 12 -28 27 -16 19 16 16 29 -7 29 -11 0 -20 -6 -20
-13z"/>
<path d="M7795 6690 c3 -5 8 -10 11 -10 2 0 4 5 4 10 0 6 -5 10 -11 10 -5 0
-7 -4 -4 -10z"/>
<path d="M7790 6540 c0 -5 5 -10 10 -10 6 0 10 5 10 10 0 6 -4 10 -10 10 -5 0
-10 -4 -10 -10z"/>
<path d="M7720 6529 c0 -5 5 -7 10 -4 6 3 10 8 10 11 0 2 -4 4 -10 4 -5 0 -10
-5 -10 -11z"/>
<path d="M7788 6463 c7 -3 16 -2 19 1 4 3 -2 6 -13 5 -11 0 -14 -3 -6 -6z"/>
<path d="M8146 6135 c-9 -14 -12 -25 -6 -25 5 0 10 5 10 11 0 5 4 7 10 4 6 -4
7 1 3 11 -4 11 -3 15 5 10 6 -3 13 -2 17 4 14 23 -24 8 -39 -15z"/>
<path d="M8090 6029 c0 -5 5 -7 10 -4 6 3 10 8 10 11 0 2 -4 4 -10 4 -5 0 -10
-5 -10 -11z"/>
<path d="M7878 5933 c7 -3 16 -2 19 1 4 3 -2 6 -13 5 -11 0 -14 -3 -6 -6z"/>
<path d="M7408 5893 c6 -2 18 -2 25 0 6 3 1 5 -13 5 -14 0 -19 -2 -12 -5z"/>
<path d="M7044 5733 c4 -15 13 -51 21 -79 l15 -52 317 -7 c318 -8 1206 1 1403
14 l105 6 -100 8 c-55 4 -221 12 -370 17 -257 10 -497 19 -502 20 -2 0 -3 5
-3 10 0 6 32 10 78 10 42 0 210 7 372 17 220 13 282 19 245 25 -91 13 -543 28
-1069 34 l-519 6 7 -29z"/>
<path d="M1780 5140 l0 -60 -110 0 c-122 0 -144 -8 -126 -46 7 -14 23 -24 46
-28 40 -7 1274 -6 1248 1 -10 3 -18 16 -20 36 -3 31 -5 32 -50 35 l-48 3 0 60
c0 59 0 59 -30 59 -28 0 -29 -1 -32 -57 -3 -51 -6 -58 -25 -61 -20 -3 -22 0
-20 57 l2 61 -32 0 -33 0 0 -60 0 -60 -55 0 -55 0 0 60 c0 60 0 60 -30 60 -28
0 -29 -2 -36 -60 -5 -50 -10 -60 -25 -60 -16 0 -19 8 -19 60 l0 60 -35 0 -35
0 0 -60 0 -60 -55 0 -55 0 0 60 0 60 -35 0 -35 0 0 -60 c0 -57 -1 -60 -24 -60
-26 0 -36 21 -36 83 0 34 -2 37 -30 37 -26 0 -30 -3 -30 -29 0 -16 -3 -43 -6
-60 -6 -30 -9 -31 -55 -31 l-49 0 0 60 0 60 -35 0 -35 0 0 -60z"/>
<path d="M7543 5070 c-20 -8 -21 -12 -12 -34 15 -31 33 -36 147 -36 65 0 92 4
92 12 0 9 3 9 12 0 9 -9 71 -12 219 -12 l208 0 4 28 4 27 2 -27 1 -28 221 0
c214 0 221 1 238 22 17 20 17 22 -1 40 -16 16 -38 18 -237 18 -166 0 -221 -3
-224 -12 -4 -10 -6 -10 -6 0 -1 9 -72 12 -323 11 -178 0 -333 -4 -345 -9z"/>
<path d="M7790 4918 c0 -24 -4 -38 -8 -31 -8 12 -5 -120 3 -144 3 -8 23 -13
55 -13 l50 0 0 76 c0 74 -1 76 -28 86 -17 7 -33 23 -40 40 -15 42 -32 34 -32
-14z"/>
<path d="M8230 4845 l0 -115 55 0 c56 0 57 1 58 45 1 96 -2 106 -38 121 -20 8
-40 25 -45 39 -20 53 -30 24 -30 -90z"/>
<path d="M1486 4888 c4 -7 32 -46 61 -85 44 -60 58 -73 81 -73 l27 0 -3 75
c-3 53 -1 75 7 75 7 0 9 5 6 10 -3 6 -47 10 -96 10 -69 0 -88 -3 -83 -12z"/>
<path d="M2300 4820 l0 -80 80 0 c81 0 81 0 69 23 -7 12 -18 47 -24 77 l-11
55 -57 3 -57 3 0 -81z"/>
<path d="M2440 4895 c0 -12 43 -131 51 -141 5 -6 36 -12 69 -13 l60 -2 0 81 0
80 -90 0 c-49 0 -90 -2 -90 -5z m160 -104 c0 -11 -59 -20 -66 -10 -2 4 8 10
23 12 16 2 31 5 36 6 4 0 7 -3 7 -8z"/>
<path d="M8724 4892 c-22 -15 -76 -171 -54 -157 11 7 110 150 110 160 0 8 -43
6 -56 -3z"/>
<path d="M1685 4583 c35 -49 73 -100 84 -114 l20 -25 356 2 c196 1 358 4 361
7 3 2 8 21 11 41 6 36 5 36 -31 36 -30 0 -37 4 -42 25 -10 40 1 55 41 55 32 0
35 2 35 30 l0 30 -450 0 -449 0 64 -87z m340 17 c4 -6 3 -24 0 -41 -7 -29 -9
-30 -53 -27 -40 3 -47 6 -50 26 -6 42 4 52 52 52 25 0 48 -5 51 -10z m383 -21
c-3 -37 -22 -49 -82 -49 l-46 0 0 40 0 40 65 0 65 0 -2 -31z m-158 2 c0 -35
-27 -51 -86 -51 -57 0 -60 3 -44 44 9 24 14 26 70 26 53 0 60 -2 60 -19z"/>
<path d="M7742 4566 c1 -57 5 -107 8 -109 3 -3 169 -7 369 -8 l363 -3 60 80
c33 43 67 88 77 99 9 12 21 26 25 33 6 9 -95 12 -449 12 l-457 0 4 -104z m188
20 c0 -49 -8 -56 -70 -56 -56 0 -58 1 -62 28 -7 47 -1 52 68 52 61 0 64 -1 64
-24z m199 15 c9 -6 11 -18 6 -40 -6 -30 -8 -31 -60 -31 -91 0 -115 8 -115 40
0 16 6 31 13 33 21 9 141 7 156 -2z m212 -6 c1 -8 2 -21 3 -27 4 -25 -17 -38
-60 -38 -24 0 -44 3 -45 8 0 4 -2 16 -5 27 -7 37 3 45 56 45 37 0 50 -4 51
-15z"/>
<path d="M3132 4513 c14 -34 29 -55 35 -49 7 7 -26 76 -36 76 -7 0 -6 -10 1
-27z"/>
<path d="M1800 4424 c0 -5 15 -26 33 -47 l32 -38 288 7 c266 7 287 8 287 25 0
10 10 25 22 33 21 15 -4 16 -289 16 -171 0 -325 3 -342 6 -17 4 -31 3 -31 -2z"/>
<path d="M2125 4230 c3 -5 15 -10 26 -10 10 0 19 5 19 10 0 6 -12 10 -26 10
-14 0 -23 -4 -19 -10z"/>
<path d="M2202 4229 c2 -6 8 -10 13 -10 5 0 11 4 13 10 2 6 -4 11 -13 11 -9 0
-15 -5 -13 -11z"/>
<path d="M7970 4230 c0 -5 11 -10 25 -10 14 0 25 5 25 10 0 6 -11 10 -25 10
-14 0 -25 -4 -25 -10z"/>
<path d="M8050 4231 c0 -5 7 -11 15 -15 9 -3 15 0 15 9 0 8 -7 15 -15 15 -8 0
-15 -4 -15 -9z"/>
<path d="M2155 4190 c-7 -11 4 -60 17 -77 5 -7 5 -12 -1 -15 -6 -1 -8 -13 -5
-25 8 -31 64 -33 64 -4 0 29 -17 34 -26 8 -6 -16 -9 -1 -11 51 -3 53 -7 72
-18 72 -8 0 -16 -4 -20 -10z"/>
<path d="M8001 4131 c1 -83 18 -96 21 -16 0 30 1 60 2 67 1 6 -5 13 -11 15
-10 4 -13 -14 -12 -66z"/>
<path d="M2210 4160 c0 -20 5 -30 15 -30 9 0 15 -9 15 -22 0 -16 3 -19 11 -11
19 19 7 75 -18 84 -21 7 -23 5 -23 -21z"/>
<path d="M7947 4168 c-7 -32 6 -113 18 -111 14 3 19 33 6 33 -6 0 -11 7 -11
15 0 8 7 15 15 15 17 0 20 23 5 51 -14 25 -27 24 -33 -3z"/>
<path d="M8040 4125 c0 -58 2 -65 20 -65 25 0 40 29 40 80 0 37 -2 41 -20 35
-11 -4 -20 -2 -20 4 0 6 -4 11 -10 11 -6 0 -10 -28 -10 -65z m40 -10 c0 -26
-14 -33 -25 -15 -9 14 1 40 15 40 5 0 10 -11 10 -25z"/>
<path d="M2107 4173 c-9 -8 -9 -70 -1 -100 9 -35 44 -31 43 5 -1 17 -3 20 -6
9 -6 -24 -23 -11 -23 18 0 27 16 42 23 23 3 -7 6 -3 6 10 1 13 -3 20 -9 17 -5
-3 -10 1 -10 9 0 17 -12 21 -23 9z"/>
<path d="M2061 4094 c0 -11 3 -14 6 -6 3 7 2 16 -1 19 -3 4 -6 -2 -5 -13z"/>
<path d="M8126 4094 c-8 -22 1 -31 16 -16 9 9 9 15 1 23 -7 7 -12 5 -17 -7z"/>
<path d="M2276 4085 c-3 -9 0 -15 9 -15 8 0 15 7 15 15 0 8 -4 15 -9 15 -5 0
-11 -7 -15 -15z"/>
<path d="M2251 4050 c-1 -18 16 -46 23 -40 2 3 -2 16 -9 30 -8 15 -14 19 -14
10z"/>
<path d="M7930 4034 c0 -8 5 -12 10 -9 6 4 8 11 5 16 -9 14 -15 11 -15 -7z"/>
<path d="M8000 4029 c0 -15 -5 -19 -15 -15 -18 6 -20 -10 -3 -20 6 -4 17 1 25
11 15 22 17 45 3 45 -5 0 -10 -9 -10 -21z"/>
<path d="M8100 4036 c0 -8 5 -18 10 -21 6 -3 10 1 10 9 0 8 -4 18 -10 21 -5 3
-10 -1 -10 -9z"/>
<path d="M2080 4025 c0 -8 5 -15 10 -15 6 0 10 7 10 15 0 8 -4 15 -10 15 -5 0
-10 -7 -10 -15z"/>
<path d="M2200 4010 c0 -11 5 -20 10 -20 6 0 10 9 10 20 0 11 -4 20 -10 20 -5
0 -10 -9 -10 -20z"/>
<path d="M8042 4014 c4 -21 22 -23 26 -1 2 10 -3 17 -13 17 -10 0 -15 -6 -13
-16z"/>
<path d="M2132 4009 c2 -6 8 -10 13 -10 5 0 11 4 13 10 2 6 -4 11 -13 11 -9 0
-15 -5 -13 -11z"/>
<path d="M2188 3713 c12 -2 30 -2 40 0 9 3 -1 5 -23 4 -22 0 -30 -2 -17 -4z"/>
<path d="M2293 3713 c9 -2 25 -2 35 0 9 3 1 5 -18 5 -19 0 -27 -2 -17 -5z"/>
<path d="M4772 2944 c2 -11 11 -20 22 -22 13 -3 17 1 14 14 -2 11 -11 20 -22
22 -13 3 -17 -1 -14 -14z"/>
<path d="M5480 2940 c-17 -10 -13 -15 18 -24 24 -8 30 5 9 22 -8 7 -18 7 -27
2z"/>
<path d="M4680 2865 c0 -25 5 -45 10 -45 6 0 10 20 10 45 0 25 -4 45 -10 45
-5 0 -10 -20 -10 -45z"/>
<path d="M4860 2886 c0 -33 10 -57 21 -50 16 9 11 74 -6 74 -9 0 -15 -9 -15
-24z"/>
<path d="M4732 2878 c2 -12 11 -24 21 -26 14 -3 18 1 15 20 -2 12 -11 24 -21
26 -14 3 -18 -1 -15 -20z"/>
<path d="M4807 2892 c-3 -4 -3 -28 0 -55 8 -68 29 -61 25 8 -4 50 -13 68 -25
47z"/>
<path d="M5390 2878 c0 -34 11 -68 21 -68 5 0 9 20 9 45 0 33 -4 45 -15 45 -9
0 -15 -9 -15 -22z"/>
<path d="M5518 2893 c-8 -15 4 -113 13 -113 5 0 9 23 9 50 0 28 0 53 1 57 1
11 -18 16 -23 6z"/>
<path d="M5580 2844 c0 -34 4 -53 10 -49 6 3 10 28 10 56 0 27 -4 49 -10 49
-5 0 -10 -25 -10 -56z"/>
<path d="M5452 2868 c2 -13 8 -23 13 -23 6 0 11 10 13 23 2 15 -2 22 -13 22
-11 0 -15 -7 -13 -22z"/>
<path d="M4736 2805 c-4 -11 1 -15 19 -15 16 0 25 6 25 15 0 8 -9 15 -19 15
-10 0 -21 -7 -25 -15z"/>
<path d="M5450 2798 c0 -13 6 -18 17 -16 24 5 27 25 3 31 -15 4 -20 0 -20 -15z"/>
<path d="M2044 2499 c3 -34 6 -299 6 -590 l0 -528 63 3 c34 2 95 4 135 4 l72
2 0 185 0 185 84 0 85 0 57 -92 c31 -51 84 -135 117 -185 l60 -93 154 0 154 0
-15 28 c-9 15 -69 108 -134 207 l-119 180 73 70 c57 56 76 82 93 129 42 115
37 257 -14 355 -32 64 -109 135 -180 168 l-60 28 -319 3 -319 3 7 -62z m559
-208 c103 -64 101 -213 -3 -268 -38 -20 -58 -23 -162 -23 l-118 0 0 161 0 161
123 -3 c107 -4 127 -7 160 -28z"/>
<path d="M3322 2148 c4 -374 6 -418 23 -468 31 -87 92 -169 163 -217 81 -54
144 -74 262 -80 153 -8 273 32 367 124 65 64 99 123 123 218 18 71 20 111 20
457 l0 378 -140 0 -140 0 0 -362 c0 -385 -3 -418 -47 -477 -71 -93 -236 -93
-305 0 -46 62 -48 81 -48 470 l0 369 -141 0 -141 0 4 -412z"/>
<path d="M4660 1972 l0 -587 106 -3 c58 -2 119 0 135 3 l29 7 0 163 0 163 153
5 c216 6 300 39 393 154 66 81 88 148 88 273 0 98 -2 110 -33 177 -36 76 -107
155 -170 188 -80 41 -116 45 -413 45 l-288 0 0 -588z m503 337 c50 -13 103
-61 118 -106 15 -47 7 -124 -17 -156 -40 -54 -88 -71 -216 -75 l-118 -4 0 176
0 176 98 0 c53 0 114 -5 135 -11z"/>
<path d="M5900 1970 l0 -590 218 0 c119 0 315 3 435 7 l217 6 0 116 0 116
-297 0 -298 0 -3 113 -3 112 251 0 250 0 0 120 0 120 -250 0 -250 0 0 115 0
115 295 0 295 0 0 120 0 120 -430 0 -430 0 0 -590z"/>
<path d="M7112 1973 l3 -588 80 -3 c44 -2 104 0 133 3 l52 6 0 325 c0 178 3
324 8 324 6 -1 80 -98 343 -456 156 -212 146 -203 221 -200 35 2 91 4 126 4
l62 2 0 585 0 585 -138 0 -138 0 1 -335 c1 -184 -2 -335 -5 -335 -4 0 -67 84
-141 186 -74 102 -161 223 -193 268 -33 44 -80 110 -106 146 l-46 65 -132 3
-132 3 2 -588z"/>
<path d="M2120 1193 c1 -10 20 -76 44 -148 41 -126 44 -130 72 -133 29 -3 30
-2 54 80 12 46 25 87 28 92 3 5 17 -27 32 -72 34 -99 36 -102 64 -102 22 0 28
14 73 145 27 80 44 145 39 145 -6 0 -20 3 -32 6 -18 5 -23 -4 -47 -76 -15 -45
-27 -88 -27 -96 0 -8 -3 -14 -8 -14 -4 0 -18 41 -31 90 -20 78 -27 91 -48 96
-32 8 -35 4 -63 -91 -13 -44 -26 -83 -30 -87 -3 -4 -17 34 -31 85 -25 90 -27
92 -58 95 -25 3 -31 0 -31 -15z"/>
<path d="M2644 1190 c-98 -49 -112 -187 -24 -250 79 -56 194 -28 232 57 60
135 -74 259 -208 193z m127 -69 c57 -58 24 -151 -53 -151 -81 1 -117 93 -59
151 38 38 74 38 112 0z"/>
<path d="M2938 1204 c-5 -4 -8 -72 -8 -151 l0 -143 34 0 c33 0 33 1 34 46 1
26 3 48 5 50 11 12 50 -14 77 -52 26 -37 36 -44 66 -44 19 0 34 3 34 6 0 3
-14 25 -31 49 l-32 44 27 31 c39 47 32 119 -14 148 -23 14 -182 28 -192 16z
m160 -76 c32 -27 -3 -68 -58 -68 -31 0 -39 4 -44 23 -3 12 -3 33 1 45 5 21 10
23 47 17 22 -4 47 -12 54 -17z"/>
<path d="M3247 1204 c-4 -4 -7 -72 -7 -151 l0 -144 107 3 106 3 1 28 2 27 -73
0 -72 0 -3 118 -3 117 -25 3 c-14 2 -29 0 -33 -4z"/>
<path d="M3510 1060 l0 -153 83 5 c49 3 97 13 116 22 66 34 90 123 53 195 -29
58 -57 71 -160 78 l-92 6 0 -153z m178 66 c8 -7 16 -32 19 -54 8 -60 -14 -89
-73 -98 -57 -8 -64 0 -64 76 0 92 4 99 58 94 26 -3 53 -11 60 -18z"/>
<path d="M3982 1176 c3 -28 6 -30 48 -30 l45 -1 3 -117 3 -118 29 0 30 0 0
114 0 114 50 7 c46 6 50 9 50 35 l0 28 -130 -2 -131 -1 3 -29z"/>
<path d="M4297 1203 c-4 -3 -7 -71 -7 -150 l0 -143 36 0 c31 0 35 3 34 23 -5
54 0 67 23 67 16 0 34 -14 56 -45 27 -38 37 -45 67 -45 19 0 34 2 34 5 0 2
-14 24 -31 49 l-32 45 27 31 c50 60 29 140 -42 160 -41 11 -155 14 -165 3z
m160 -80 c12 -16 7 -43 -11 -55 -6 -4 -28 -8 -48 -8 -37 0 -38 1 -38 38 0 21
3 42 7 45 11 11 77 -4 90 -20z"/>
<path d="M4713 1198 c-15 -20 -123 -261 -123 -275 0 -8 13 -13 31 -13 25 0 33
6 42 30 11 29 13 30 83 30 70 0 72 -1 84 -30 10 -25 18 -30 46 -30 19 0 34 2
34 6 0 3 -30 70 -67 150 -62 133 -69 144 -94 144 -14 0 -31 -6 -36 -12z m55
-117 c16 -52 17 -51 -23 -51 -19 0 -35 2 -35 5 0 13 33 85 40 85 4 0 12 -17
18 -39z"/>
<path d="M4962 1064 l3 -149 88 1 c95 1 119 11 161 67 25 34 26 113 1 155 -29
48 -67 64 -167 70 l-89 5 3 -149z m153 71 c41 -16 58 -52 49 -100 -7 -39 -53
-69 -99 -63 l-30 3 -3 74 c-2 41 -1 80 2 88 7 17 38 17 81 -2z"/>
<path d="M5300 1060 l0 -150 110 0 110 0 0 35 0 35 -75 0 c-73 0 -75 1 -75 25
0 23 4 24 63 27 59 3 62 4 65 31 l3 27 -65 0 -66 0 0 30 0 30 74 0 c67 0 74 2
79 22 3 12 4 25 1 30 -3 4 -54 8 -115 8 l-109 0 0 -150z"/>
<path d="M5730 1202 c0 -8 42 -118 60 -157 5 -11 20 -46 34 -77 22 -51 28 -58
53 -58 26 0 31 8 85 134 32 73 60 140 64 149 5 13 -1 16 -32 14 l-38 -3 -35
-97 c-20 -53 -38 -97 -41 -97 -3 0 -23 45 -45 100 -39 98 -41 100 -72 100 -18
0 -33 -4 -33 -8z"/>
<path d="M6080 1060 l0 -150 110 0 110 0 0 35 0 35 -75 0 c-73 0 -75 1 -75 25
0 22 4 25 34 25 68 0 96 11 96 36 0 23 -3 24 -65 24 -65 0 -65 0 -65 29 l0 28
73 -1 72 -1 3 33 3 32 -110 0 -111 0 0 -150z"/>
<path d="M6370 1060 l0 -150 30 0 29 0 3 86 3 86 52 -64 c78 -95 92 -108 118
-108 l25 0 0 150 0 150 -30 0 -30 0 0 -85 c0 -47 -3 -85 -7 -85 -5 1 -39 39
-76 85 -52 65 -74 85 -93 85 l-24 0 0 -150z"/>
<path d="M6680 1179 c0 -31 11 -37 62 -33 l37 3 3 -117 3 -117 30 0 30 0 0
115 0 115 45 0 c44 0 45 1 48 34 l3 33 -130 -3 -131 -4 0 -26z"/>
<path d="M6990 1095 c0 -112 1 -116 28 -146 24 -27 37 -33 83 -36 42 -3 61 0
87 16 43 28 50 49 53 171 l3 103 -32 2 -32 3 0 -97 c0 -110 -13 -141 -59 -141
-56 0 -66 18 -71 131 l-5 104 -27 2 -28 2 0 -114z"/>
<path d="M7315 1199 c-4 -5 -4 -73 0 -150 l8 -139 28 0 c28 0 29 2 29 44 0 72
31 72 81 0 27 -39 34 -44 70 -44 l39 0 -35 51 -36 50 26 30 c48 58 26 140 -44
159 -47 13 -158 13 -166 -1z m162 -72 c33 -32 -3 -67 -69 -67 -27 0 -28 2 -28
46 l0 47 41 -6 c23 -3 48 -12 56 -20z"/>
<path d="M7625 1126 c-4 -47 -4 -114 0 -150 l7 -66 103 0 c96 0 104 2 110 20
12 37 -11 50 -86 50 -67 0 -69 1 -69 25 0 23 4 25 43 25 66 0 87 9 87 36 0 23
-3 24 -66 24 l-65 0 3 28 3 27 73 -3 72 -4 0 36 0 36 -104 0 -104 0 -7 -84z"/>
<path d="M7954 1196 c-56 -25 -68 -110 -20 -141 11 -7 43 -19 69 -26 39 -9 48
-15 45 -32 -5 -31 -39 -38 -86 -17 l-41 18 -15 -23 c-9 -14 -16 -26 -16 -29 0
-11 86 -36 124 -36 59 0 106 37 106 84 0 46 -19 67 -86 90 -45 16 -59 26 -59
41 0 15 8 21 33 23 18 2 40 -2 48 -9 11 -9 18 -8 34 6 27 25 25 30 -14 49 -41
19 -80 20 -122 2z"/>
</g>
</svg>
